<svg preserveAspectRatio="none" width="100%" height="100%" overflow="visible" style="display: block;" viewBox="0 0 88 40" fill="none" xmlns="http://www.w3.org/2000/svg">
<g id="Logo" clip-path="url(#clip0_4750_90203)">
<path id="Vector" d="M15.7733 19.4986C15.7555 19.4719 15.74 19.4563 15.6466 19.4563H15.5555C15.5132 19.4652 15.4799 19.4652 15.4377 19.4652C15.3776 19.4652 15.3287 19.4563 15.2865 19.4474H15.2687L15.2532 19.4385C15.2109 19.423 15.1687 19.4141 15.1265 19.4141C14.9931 19.4141 14.8509 19.4897 14.7153 19.5653C14.6819 19.5809 14.6575 19.5987 14.6241 19.6165C14.4397 19.7077 14.4219 19.8078 14.4219 19.8078H16.0911C15.9756 19.7255 15.8733 19.6232 15.7733 19.4986ZM14.6486 19.6655C14.6664 19.6566 14.6819 19.6477 14.6975 19.6388C14.7108 19.6299 14.7242 19.6232 14.7397 19.6143C14.8775 19.5386 15.0087 19.4697 15.1265 19.4697C15.162 19.4697 15.1976 19.4764 15.2332 19.4897L15.2443 19.4964L15.2576 19.5031H15.2865C15.3199 19.5097 15.3732 19.5208 15.4377 19.5208C15.4799 19.5208 15.5177 19.5208 15.5666 19.5097H15.6466C15.7155 19.5097 15.7199 19.5208 15.7266 19.5297C15.7977 19.6165 15.8644 19.6899 15.9356 19.7522H14.5219C14.5463 19.7277 14.5864 19.6966 14.6486 19.6655ZM15.7733 19.4986C15.7555 19.4719 15.74 19.4563 15.6466 19.4563H15.5555C15.5132 19.4652 15.4799 19.4652 15.4377 19.4652C15.3776 19.4652 15.3287 19.4563 15.2865 19.4474H15.2687L15.2532 19.4385C15.2109 19.423 15.1687 19.4141 15.1265 19.4141C14.9931 19.4141 14.8509 19.4897 14.7153 19.5653C14.6819 19.5809 14.6575 19.5987 14.6241 19.6165C14.4397 19.7077 14.4219 19.8078 14.4219 19.8078H16.0911C15.9756 19.7255 15.8733 19.6232 15.7733 19.4986ZM14.6486 19.6655C14.6664 19.6566 14.6819 19.6477 14.6975 19.6388C14.7108 19.6299 14.7242 19.6232 14.7397 19.6143C14.8775 19.5386 15.0087 19.4697 15.1265 19.4697C15.162 19.4697 15.1976 19.4764 15.2332 19.4897L15.2443 19.4964L15.2576 19.5031H15.2865C15.3199 19.5097 15.3732 19.5208 15.4377 19.5208C15.4799 19.5208 15.5177 19.5208 15.5666 19.5097H15.6466C15.7155 19.5097 15.7199 19.5208 15.7266 19.5297C15.7977 19.6165 15.8644 19.6899 15.9356 19.7522H14.5219C14.5463 19.7277 14.5864 19.6966 14.6486 19.6655ZM15.7733 19.4986C15.7555 19.4719 15.74 19.4563 15.6466 19.4563H15.5555C15.5132 19.4652 15.4799 19.4652 15.4377 19.4652C15.3776 19.4652 15.3287 19.4563 15.2865 19.4474H15.2687L15.2532 19.4385C15.2109 19.423 15.1687 19.4141 15.1265 19.4141C14.9931 19.4141 14.8509 19.4897 14.7153 19.5653C14.6819 19.5809 14.6575 19.5987 14.6241 19.6165C14.4397 19.7077 14.4219 19.8078 14.4219 19.8078H16.0911C15.9756 19.7255 15.8733 19.6232 15.7733 19.4986ZM14.6486 19.6655C14.6664 19.6566 14.6819 19.6477 14.6975 19.6388C14.7108 19.6299 14.7242 19.6232 14.7397 19.6143C14.8775 19.5386 15.0087 19.4697 15.1265 19.4697C15.162 19.4697 15.1976 19.4764 15.2332 19.4897L15.2443 19.4964L15.2576 19.5031H15.2865C15.3199 19.5097 15.3732 19.5208 15.4377 19.5208C15.4799 19.5208 15.5177 19.5208 15.5666 19.5097H15.6466C15.7155 19.5097 15.7199 19.5208 15.7266 19.5297C15.7977 19.6165 15.8644 19.6899 15.9356 19.7522H14.5219C14.5463 19.7277 14.5864 19.6966 14.6486 19.6655Z" fill="var(--fill-0, black)"/>
<path id="Vector_2" d="M37.7664 27.515C36.7972 29.8087 35.4036 31.8732 33.6276 33.6529C31.8539 35.426 29.7912 36.8187 27.4974 37.7931C25.1124 38.7987 22.5851 39.3103 19.9912 39.3103C17.3973 39.3103 14.8589 38.7987 12.4851 37.7931C10.1956 36.8231 8.13074 35.4305 6.35033 33.6529C4.57437 31.8732 3.18295 29.8087 2.21606 27.5172C1.20916 25.1324 0.697936 22.6051 0.697936 20.0044C0.697936 17.4038 1.20916 14.8676 2.21606 12.4917C3.18517 10.1958 4.5766 8.13348 6.35255 6.35818C8.13074 4.57842 10.1934 3.18576 12.4828 2.21802C14.8656 1.21023 17.3928 0.700779 19.9912 0.700779C22.5896 0.700779 25.1213 1.21023 27.4974 2.21802C29.7912 3.19021 31.8539 4.58287 33.6276 6.35818C35.4036 8.13348 36.795 10.198 37.7664 12.4917C38.6821 14.663 39.1867 16.9544 39.2689 19.3081H39.9491C39.9135 18.1935 39.7846 17.0879 39.569 16.0133C39.3089 14.7052 38.9155 13.426 38.4021 12.2113C37.3996 9.83982 35.9593 7.70189 34.1211 5.85539C32.2896 4.02225 30.1535 2.58065 27.7685 1.57286C25.2946 0.529477 22.674 0 19.9823 0C17.2906 0 14.6744 0.529477 12.2028 1.57286C9.8289 2.5762 7.69508 4.0178 5.85911 5.85539C4.01869 7.69522 2.57392 9.83315 1.56925 12.2113C0.526786 14.6852 0 17.3037 0 19.9955C0 22.6874 0.526786 25.3148 1.56925 27.7909C2.5717 30.1602 4.01202 32.2981 5.85022 34.1468C7.67952 35.9778 9.81779 37.4194 12.2028 38.4294C14.6744 39.4705 17.2906 40 19.9823 40C22.674 40 25.288 39.4705 27.7596 38.4294C30.1291 37.426 32.2651 35.9844 34.11 34.1468C35.9526 32.3048 37.3929 30.1646 38.3932 27.7887C39.3467 25.5217 39.8713 23.1324 39.9491 20.6763H39.2689C39.1911 23.0412 38.6843 25.337 37.7664 27.515Z" fill="var(--fill-0, black)"/>
<path id="Vector_3" d="M87.167 19.1528C86.987 19.1528 86.8181 19.2106 86.6825 19.3107C86.5336 19.4175 86.4202 19.5732 86.3646 19.7557H37.229C37.1735 19.5755 37.0601 19.4175 36.9045 19.3107C36.8334 19.2596 36.7534 19.2217 36.6667 19.195C36.6422 18.6166 36.58 18.0115 36.4711 17.2974C36.7934 17.1239 36.9623 16.759 36.8845 16.3964C36.8089 16.0404 36.5 15.769 36.1443 15.7423C35.9754 15.1038 35.7776 14.4943 35.5531 13.9225C35.8287 13.6912 35.9176 13.2929 35.7642 12.9592C35.6331 12.6633 35.3308 12.4653 35.0085 12.4653C34.9774 12.4653 34.9418 12.4653 34.9063 12.4676C34.6373 11.9314 34.3239 11.3908 33.9527 10.8191C34.1772 10.5254 34.1839 10.1227 33.9616 9.82463C33.806 9.60884 33.5615 9.48425 33.2881 9.48425C33.1881 9.48425 33.0947 9.49983 33.0125 9.53097C32.6169 9.04376 32.2168 8.59883 31.7922 8.17168L31.7367 8.11607C31.8967 7.78459 31.8211 7.38637 31.5455 7.1372C31.3899 6.99927 31.1921 6.92141 30.9898 6.92141C30.8298 6.92141 30.6764 6.96367 30.5542 7.04154C30.0452 6.62552 29.5273 6.24732 29.0138 5.92029C29.1005 5.56657 28.9449 5.19727 28.6248 5.00594C28.487 4.93253 28.3537 4.89693 28.2114 4.89693C27.998 4.89693 27.7958 4.97702 27.6379 5.12163C27.0756 4.83242 26.4888 4.57213 25.8931 4.34521C25.902 3.97591 25.6686 3.64888 25.3152 3.53987C25.2107 3.50872 25.1352 3.49538 25.064 3.49538C24.7884 3.49538 24.5372 3.62886 24.3839 3.85578C23.7926 3.69337 23.1658 3.56212 22.519 3.45978C22.4479 3.09938 22.1523 2.82352 21.7877 2.78125H21.6988C21.361 2.78125 21.0587 2.98815 20.9298 3.2996C20.6208 3.28403 20.3007 3.26846 19.9784 3.26846C19.6161 3.26846 19.3116 3.27736 19.0249 3.2996C18.8937 2.9926 18.5848 2.78125 18.258 2.78125H18.1736C17.8002 2.82352 17.5068 3.10161 17.4379 3.45978C16.7888 3.56212 16.162 3.69337 15.5708 3.85578C15.4129 3.63331 15.1573 3.49538 14.8906 3.49538C14.815 3.49538 14.7261 3.51095 14.6394 3.53987C14.2949 3.64888 14.0615 3.97591 14.0638 4.34521C13.4681 4.57213 12.8813 4.83242 12.3167 5.12163C12.1589 4.97702 11.9566 4.89693 11.7432 4.89693C11.6032 4.89693 11.4676 4.93253 11.332 5.00594C11.0097 5.19282 10.8541 5.56212 10.9408 5.92029C10.4274 6.24955 9.90948 6.62552 9.39825 7.04376C9.26933 6.96367 9.12041 6.92141 8.96704 6.92141C8.76255 6.92141 8.56473 6.99927 8.40914 7.1372C8.14019 7.40639 8.07128 7.79571 8.22687 8.12496C8.20687 8.14276 8.18464 8.16279 8.16686 8.18726C7.74454 8.60772 7.34667 9.05266 6.95103 9.53765C6.86879 9.5065 6.77543 9.49093 6.67541 9.49093C6.40646 9.49093 6.15529 9.61996 5.9997 9.83353C5.77965 10.1294 5.78632 10.5321 6.01081 10.8257C5.66851 11.3441 5.34844 11.898 5.05726 12.4765C5.0217 12.472 4.98614 12.472 4.95502 12.472C4.62383 12.472 4.32821 12.6678 4.19929 12.9681C4.04814 13.2952 4.13705 13.6934 4.41045 13.9314C4.18595 14.5009 3.98813 15.1127 3.8192 15.7512C3.45912 15.7779 3.15683 16.0404 3.07904 16.4053C3.00346 16.759 3.17684 17.1305 3.49246 17.3041C3.38799 17.9247 3.32354 18.5632 3.29686 19.2039C2.94345 19.3085 2.70117 19.6311 2.70117 20.0026C2.70117 20.3741 2.94345 20.6967 3.29686 20.8013C3.32131 21.3819 3.38355 21.987 3.49246 22.7012C3.17017 22.8725 3.00124 23.2373 3.07904 23.5999C3.15461 23.9581 3.46357 24.2273 3.8192 24.2562C3.98813 24.8858 4.18595 25.4976 4.41045 26.0738C4.13483 26.3074 4.04592 26.7056 4.19929 27.0393C4.33043 27.333 4.63272 27.5332 4.95502 27.5332C4.98614 27.5332 5.0217 27.5332 5.05726 27.5287C5.33955 28.0916 5.65962 28.6478 6.01081 29.1795C5.78632 29.4731 5.77965 29.8758 6.00192 30.1717C6.15751 30.3897 6.40201 30.5143 6.67541 30.5143C6.77543 30.5143 6.86879 30.4987 6.95103 30.4676C7.34667 30.9548 7.74454 31.3975 8.1713 31.8246L8.22687 31.8802C8.06684 32.2139 8.14241 32.6122 8.41803 32.8591C8.57362 32.9993 8.77144 33.0749 8.97371 33.0749C9.13374 33.0749 9.28711 33.0326 9.40714 32.9548C9.91837 33.3708 10.4363 33.749 10.9497 34.0782C10.863 34.4297 11.0186 34.8013 11.3387 34.9904C11.4765 35.0638 11.6099 35.0994 11.7521 35.0994C11.9655 35.0994 12.1678 35.0215 12.3256 34.8769C12.8879 35.1661 13.4747 35.4264 14.0704 35.6533C14.0615 36.0204 14.2949 36.3474 14.6483 36.4587C14.7528 36.4898 14.8284 36.5032 14.8995 36.5032C15.1729 36.5032 15.4241 36.3719 15.5797 36.1494C16.1687 36.3118 16.7977 36.4453 17.4445 36.5454C17.5156 36.9058 17.8113 37.1817 18.1758 37.224H18.2647C18.6026 37.224 18.9049 37.0171 19.0338 36.7056C19.3472 36.7212 19.665 36.7368 19.9851 36.7368C20.3474 36.7368 20.6519 36.7279 20.9386 36.7078C21.0698 37.0126 21.3787 37.224 21.7055 37.224H21.79C22.1634 37.1817 22.4568 36.9058 22.5257 36.5454C23.1747 36.4453 23.8037 36.3118 24.3928 36.1494C24.5461 36.3675 24.804 36.5032 25.0729 36.5032C25.1485 36.5032 25.2374 36.4854 25.3241 36.4564C25.6686 36.3474 25.902 36.0204 25.8998 35.6533C26.4955 35.4264 27.0823 35.1661 27.6468 34.8769C27.8047 35.0215 28.0069 35.0994 28.2203 35.0994C28.3603 35.0994 28.4959 35.0638 28.6315 34.9926C28.9538 34.8057 29.1094 34.4342 29.0227 34.0782C29.5362 33.749 30.0541 33.3708 30.5653 32.9548C30.6942 33.0349 30.8431 33.0749 30.9965 33.0749C31.201 33.0749 31.3988 32.9993 31.5544 32.8591C31.83 32.6122 31.9034 32.2139 31.7456 31.8802L31.8011 31.8246C32.2212 31.4042 32.6302 30.9481 33.0192 30.4676C33.1036 30.4987 33.197 30.5143 33.297 30.5143C33.566 30.5143 33.8171 30.3875 33.9705 30.1717C34.1906 29.8758 34.1861 29.4731 33.9616 29.1795C34.3039 28.6633 34.624 28.1072 34.9152 27.5287C34.9507 27.5332 34.9863 27.5332 35.0174 27.5332C35.3486 27.5332 35.6442 27.3374 35.7731 27.0371C35.9243 26.7034 35.8376 26.3118 35.562 26.0738C35.7865 25.5043 35.9843 24.8925 36.151 24.2562C36.5133 24.2273 36.8156 23.9648 36.8934 23.5999C36.969 23.2462 36.7956 22.8769 36.48 22.7012C36.5844 22.0805 36.6489 21.4398 36.6733 20.8013C36.76 20.7724 36.8423 20.7301 36.9134 20.6789C37.0623 20.5677 37.1734 20.412 37.2268 20.234H86.3624C86.4135 20.4186 86.5269 20.5744 86.678 20.6789C86.8158 20.7768 86.9848 20.8346 87.167 20.8346C87.6249 20.8346 88.0006 20.4698 88.0006 20.0004C88.0006 19.531 87.6249 19.1528 87.167 19.1528ZM35.0085 14.1383C35.0863 14.1383 35.153 14.1294 35.2108 14.1116C35.4242 14.6678 35.6064 15.2373 35.7554 15.8024C35.4664 15.9181 35.2664 16.1917 35.2419 16.5054L30.5853 17.4998C30.5208 17.4687 30.4475 17.4531 30.3519 17.4531H30.2585C30.1763 17.4531 30.0941 17.4464 30.0052 17.4398H29.9785C29.8696 17.4264 29.7629 17.4197 29.654 17.4197C29.4761 17.4197 29.2116 17.442 28.9471 17.62C28.8093 17.4932 28.6293 17.4286 28.4115 17.4286C28.3737 17.4286 28.3337 17.4286 28.2914 17.4331C28.3225 17.0816 28.147 16.8658 27.958 16.7145L34.3728 13.8558C34.544 14.036 34.7729 14.1383 35.0085 14.1383ZM33.2881 11.1572C33.4148 11.1572 33.5348 11.1283 33.6482 11.0727C33.9594 11.5443 34.2528 12.0515 34.5417 12.6166C34.2817 12.7924 34.1416 13.0949 34.1772 13.4108L27.5335 16.3675C27.5335 16.3675 27.5157 16.3519 27.5068 16.3474C27.4735 16.3141 27.4423 16.2851 27.4112 16.2562C27.3779 16.2229 27.3423 16.1917 27.309 16.1583C27.1512 16.0182 27.0445 15.8358 26.9333 15.6422C26.8844 15.5532 26.8289 15.4598 26.7666 15.3641L32.7769 10.9926C32.9347 11.0972 33.1192 11.1572 33.2881 11.1572ZM30.632 8.51429C30.752 8.5699 30.8653 8.59438 30.9809 8.59438C31.161 8.59438 31.3366 8.53431 31.4877 8.42085C31.5011 8.43197 31.5144 8.44087 31.5277 8.452C31.9612 8.88581 32.3412 9.31073 32.6858 9.74454C32.4702 9.96256 32.3968 10.294 32.4991 10.5944L26.4643 14.9815C26.1843 14.6678 25.9931 14.3007 25.7931 13.9136C25.7909 13.9114 25.7886 13.9069 25.7864 13.9025L30.632 8.51429ZM28.0114 6.55433C28.0625 6.56323 28.1136 6.57435 28.1647 6.57435C28.1803 6.57435 28.1936 6.57213 28.2092 6.5699H28.2114C28.4559 6.5699 28.6893 6.45867 28.8382 6.2718C29.3183 6.5788 29.8007 6.93253 30.2785 7.32408C30.1185 7.59104 30.1163 7.92697 30.2719 8.18948L25.5441 13.4487C25.4752 13.3285 25.4019 13.2106 25.3285 13.0949C25.1641 12.8324 24.9751 12.5321 24.864 12.2073C24.8529 12.1761 24.8395 12.1472 24.8262 12.1183C24.8218 12.1116 24.8195 12.1027 24.8151 12.096L28.0114 6.55433ZM25.7953 4.73008C26.3999 4.9659 26.9356 5.20394 27.4268 5.45756C27.3179 5.75344 27.3846 6.08047 27.6046 6.31406L24.6728 11.3953C24.6728 11.3953 24.6617 11.3775 24.655 11.3708C24.5795 11.2662 24.4572 11.2039 24.3261 11.2039C24.2505 11.2039 24.1749 11.2262 24.1171 11.264C24.0238 11.3196 23.9504 11.3396 23.9127 11.3396C23.8971 11.3396 23.866 11.3396 23.8082 11.2596C23.7504 11.1839 23.6637 11.1461 23.5437 11.1461H23.4392C23.3414 11.155 23.2503 11.1639 23.1658 11.1639H23.1169L25.064 5.17725C25.373 5.17725 25.6553 5.00372 25.7953 4.73008ZM21.8589 4.44755C22.1656 4.3897 22.4123 4.16723 22.5034 3.86468C23.0525 3.94699 23.6215 4.06712 24.2438 4.22953C24.1994 4.54098 24.335 4.85022 24.595 5.02819L22.6168 11.1038C22.359 11.0549 22.1122 10.9548 21.8611 10.8013C21.6966 10.7012 21.5343 10.65 21.3787 10.65C21.321 10.65 21.2609 10.6589 21.1987 10.6722L21.8589 4.44755ZM19.0893 3.6956C19.3827 3.68225 19.6806 3.67335 19.9784 3.67335C20.2763 3.67335 20.5697 3.68003 20.8653 3.6956C20.892 4.01151 21.0831 4.28069 21.3699 4.40083L20.6697 11.0638C20.5986 11.1639 20.543 11.2751 20.503 11.393C20.4763 11.4731 20.4585 11.4731 20.4385 11.4731C20.4274 11.4731 20.4185 11.4731 20.4141 11.4709L20.4074 11.4665H20.3985C20.2274 11.4353 20.0873 11.3953 19.9695 11.3085C19.9429 11.2907 19.9184 11.2729 19.8962 11.2573C19.874 11.2395 19.8495 11.224 19.8228 11.2062C19.6495 11.0794 19.4694 10.9481 19.2649 10.8458L18.5848 4.39415C18.8671 4.27402 19.0627 4.00261 19.0893 3.6956ZM15.7197 4.22953C16.262 4.08047 16.8466 3.95811 17.4601 3.86468C17.5423 4.16279 17.7935 4.3897 18.1047 4.44755L18.7648 10.6878C18.747 10.6856 18.7315 10.6834 18.7181 10.6834C18.6026 10.6678 18.4425 10.5632 18.3314 10.4854C18.3181 10.4765 18.3047 10.4698 18.2936 10.4631C18.3803 10.3675 18.4159 10.2807 18.4292 10.2229C18.467 10.0716 18.4359 9.89582 18.3469 9.75344C18.278 9.64443 18.0847 9.33965 17.669 9.33965H17.6201C17.4312 9.34855 17.2111 9.35745 16.9489 9.35745H16.7777L15.3774 5.02597C15.6308 4.84799 15.7641 4.53876 15.7197 4.22953ZM12.5367 5.45756C13.0413 5.19504 13.5725 4.957 14.1593 4.73008C14.3016 5.00372 14.5839 5.17725 14.8906 5.17725H14.9106L16.2665 9.35745H15.7308C15.4463 9.35745 15.244 9.37969 15.1084 9.48648C15.0373 9.53987 14.9462 9.57324 14.8061 9.60216C14.6683 9.63331 14.5105 9.6778 14.3638 9.77569L12.3678 6.32074C12.579 6.07825 12.6434 5.74899 12.5367 5.45756ZM11.1186 6.27847C11.2787 6.46757 11.5121 6.5788 11.7521 6.5788C11.8232 6.5788 11.8833 6.57213 11.9455 6.55656L13.6926 9.59104C13.5503 9.61773 13.4214 9.70227 13.3191 9.84243C13.2058 9.99371 13.0769 10.1472 12.919 10.3252L12.9057 10.3408C12.7412 10.5321 12.5701 10.7279 12.4212 10.9437C12.3811 11.0015 12.3456 11.0571 12.3056 11.1083L9.68943 8.19838C9.85169 7.92252 9.84946 7.58659 9.6872 7.33297C10.1851 6.92141 10.6541 6.57658 11.1186 6.27847ZM8.44248 8.452C8.44248 8.452 8.46026 8.43642 8.47137 8.4253C8.61585 8.54098 8.79589 8.60327 8.9826 8.60327C9.1004 8.60327 9.22043 8.57658 9.33824 8.52319L11.9833 11.4642C11.8899 11.5421 11.7721 11.6222 11.6321 11.6511C11.0164 11.7957 10.6763 12.1984 10.4474 12.5299C10.4251 12.5655 10.4029 12.5988 10.3807 12.6322C10.3696 12.65 10.3562 12.6656 10.3451 12.6834L7.47114 10.5944C7.57339 10.2963 7.50226 9.97146 7.28666 9.74454C7.61784 9.32408 8.00682 8.89026 8.44248 8.452ZM6.30866 11.0727C6.41979 11.1261 6.54427 11.1572 6.66652 11.1572C6.84656 11.1572 7.02438 11.0972 7.17108 10.9859L10.074 13.0972C9.93837 13.3063 9.79612 13.5065 9.59607 13.66C9.47604 13.7534 9.3449 13.9336 9.39825 14.2584C9.41603 14.3675 9.43159 14.4765 9.44937 14.5788C9.48494 14.7612 9.51383 14.917 9.51161 15.0727L5.77076 13.4108C5.81299 13.0972 5.66851 12.7879 5.40623 12.6166C5.68185 12.0827 5.98636 11.5621 6.30866 11.0727ZM4.75275 14.1094C4.82388 14.1272 4.89278 14.1383 4.95502 14.1383C5.19729 14.1383 5.42401 14.0338 5.58405 13.8469L9.4227 15.5599V15.5688L9.41825 15.5955C9.39603 15.7178 9.37824 15.8202 9.3249 15.8869C9.09374 16.1739 9.14041 16.4765 9.17153 16.6767V16.6967C9.18931 16.8146 9.20043 16.9081 9.16709 16.9815C9.08484 17.1772 9.24488 17.3107 9.30267 17.3619C9.31601 17.3752 9.33157 17.3864 9.34268 17.3953C9.34713 17.3997 9.35157 17.4019 9.35602 17.4064C9.38491 17.4375 9.41603 17.4754 9.44715 17.5132L4.71496 16.5054C4.68829 16.1984 4.48824 15.9247 4.19929 15.8046C4.37266 15.1884 4.5527 14.6322 4.75275 14.1094ZM3.8681 17.4042H3.897C4.20151 17.4042 4.4838 17.2373 4.62383 16.9748L9.95838 18.1138C9.99839 18.1695 10.0339 18.2318 10.0651 18.3029C10.0673 18.3118 10.074 18.323 10.0784 18.3363C10.0851 18.3497 10.0917 18.363 10.0962 18.3786L10.1073 18.4075C10.2251 18.6589 10.3451 18.9192 10.5963 19.0994C10.8519 19.2885 11.0764 19.5154 11.3165 19.7534H4.32599C4.23708 19.4553 3.98813 19.2329 3.67917 19.175C3.71251 18.5744 3.77697 17.9804 3.8681 17.4042ZM3.8681 22.5922C3.7703 21.9781 3.71029 21.3953 3.68584 20.8146C3.98813 20.7635 4.24374 20.5321 4.33488 20.234H17.3423C17.3423 20.2473 17.3423 20.274 17.3334 20.3163L4.61494 23.0215C4.47491 22.759 4.19484 22.5922 3.88811 22.5922H3.8681ZM14.4216 19.8091C14.4216 19.8091 14.4394 19.7089 14.6239 19.6177C14.6572 19.5999 14.6817 19.5821 14.715 19.5666C14.8506 19.4909 14.9929 19.4153 15.1262 19.4153C15.1684 19.4153 15.2107 19.4242 15.2529 19.4398L15.2685 19.4487H15.2863C15.3285 19.4576 15.3774 19.4665 15.4374 19.4665C15.4796 19.4665 15.513 19.4665 15.5552 19.4576H15.6463C15.7397 19.4576 15.7552 19.4731 15.773 19.4998C15.8731 19.6244 15.9753 19.7267 16.0909 19.8091H14.4216ZM4.95502 25.8602C4.87722 25.8602 4.81054 25.8691 4.75275 25.8869C4.53937 25.3285 4.3571 24.7612 4.20818 24.1962C4.49714 24.0805 4.69718 23.8068 4.72163 23.4909L17.2889 20.8146C17.3 20.8391 17.3134 20.8613 17.3312 20.8836C17.3356 20.8903 17.3401 20.8969 17.3467 20.9058H17.3489L5.58405 26.1494C5.42401 25.9648 5.19729 25.8602 4.95502 25.8602ZM6.67541 28.8413C6.55316 28.8413 6.42646 28.8702 6.31533 28.9259C6.00414 28.452 5.71074 27.947 5.42179 27.3797C5.68185 27.2039 5.82188 26.9014 5.78632 26.5877L17.2534 21.4754C17.1911 21.5755 17.1511 21.6778 17.1378 21.769L7.1733 29.0104C7.03327 28.9036 6.851 28.8413 6.67541 28.8413ZM9.32934 31.482C9.21154 31.4286 9.09374 31.4019 8.97371 31.4019C8.78922 31.4019 8.6114 31.4642 8.4647 31.5777C8.45359 31.5666 8.44025 31.5554 8.42692 31.5465C7.99349 31.1127 7.6134 30.6856 7.2711 30.254C7.48448 30.0338 7.55783 29.7023 7.45559 29.4042L17.2734 22.2629C17.3067 22.3029 17.3467 22.343 17.3912 22.3808C17.4112 22.3964 17.429 22.4142 17.449 22.4297C17.4534 22.4342 17.4579 22.4386 17.4645 22.4431L9.32934 31.482ZM11.9433 33.4442C11.8855 33.4309 11.821 33.4175 11.7521 33.4175C11.5009 33.4175 11.2676 33.5287 11.1186 33.7178C10.6674 33.4286 10.1962 33.0838 9.67831 32.6633C9.83835 32.3986 9.83835 32.0627 9.68276 31.8002L17.7935 22.7835C17.8602 22.868 17.9135 22.9414 17.958 23.0171L11.9433 33.4442ZM14.8995 34.8213C14.5905 34.8213 14.3083 34.9948 14.166 35.2685C13.6148 35.0616 13.0702 34.8168 12.5456 34.5388C12.6545 34.2451 12.5879 33.9181 12.3678 33.6822L18.2247 23.5287C18.2536 23.6022 18.2803 23.6823 18.3047 23.7646C18.3269 23.838 18.3403 23.9136 18.3558 23.9937C18.3625 24.0293 18.3714 24.0649 18.3781 24.1005C18.3781 24.1138 18.3825 24.1227 18.3847 24.1316L14.9151 34.8213H14.8995ZM18.6337 24.9147C18.7315 25.2062 18.6515 25.4642 18.3647 25.8135C18.3514 25.8291 18.3381 25.8447 18.3269 25.8602L18.6337 24.9147ZM18.1047 35.551C17.7979 35.6066 17.5512 35.8291 17.4601 36.1316C16.9111 36.0493 16.3398 35.9292 15.7197 35.7668C15.7641 35.4576 15.6286 35.1461 15.3685 34.9703L18.0091 26.8391C18.038 27.0549 18.1269 27.2863 18.2758 27.5399C18.3247 27.6266 18.3736 27.7112 18.4359 27.8091C18.5826 28.0515 18.7315 28.3007 18.8471 28.5521L18.1047 35.551ZM20.872 36.3007C20.5786 36.3163 20.2807 36.323 19.9851 36.323C19.6895 36.323 19.3961 36.3163 19.1005 36.3007C19.0804 35.9915 18.8826 35.7178 18.5937 35.5955L19.1894 29.9492C19.2894 30.2807 19.465 30.5921 19.725 30.8969L19.7362 30.9103C19.9829 31.1928 20.1874 31.4553 20.1496 31.7868C20.114 32.0538 20.1651 32.2696 20.3052 32.4275C20.3963 32.5276 20.5675 32.6478 20.8675 32.6478C20.9009 32.6478 20.9364 32.6478 20.9675 32.6389C20.992 32.6389 21.0187 32.6389 21.0431 32.6344C21.052 32.6344 21.0609 32.6344 21.0698 32.6322L21.3787 35.5955C21.0898 35.7245 20.892 36.0004 20.872 36.3007ZM21.4654 32.125H21.4477L21.4343 32.1383L21.3899 32.1761L21.0898 32.1917C21.0609 32.1917 21.0342 32.1917 21.0053 32.1962C20.9787 32.1984 20.9542 32.2006 20.9253 32.2006H20.8586C20.7542 32.2006 20.6719 32.1739 20.6319 32.1272C20.583 32.0693 20.563 31.9715 20.5786 31.8424C20.6386 31.3085 20.3207 30.9281 20.0673 30.6211H20.0651L20.0584 30.6122L20.0496 30.6033C19.7606 30.2651 19.5939 29.9181 19.545 29.5443V29.5354L19.5472 29.5265L19.5428 29.5176L19.0493 27.9692C19.0471 27.9537 19.0404 27.9403 19.0338 27.9336C18.9715 27.8157 18.8982 27.6934 18.8159 27.5643C18.7915 27.5243 18.7648 27.4798 18.7404 27.4353C18.7159 27.3908 18.6915 27.3485 18.6648 27.3063C18.3692 26.7924 18.3825 26.4965 18.7204 26.0849C19.0338 25.7 19.3116 25.2217 18.9871 24.5721L18.8182 24.2451L18.8382 24.185L18.8426 24.1717V24.1583L18.8226 24.0738V24.0671L18.8248 24.0582V24.0493L18.8137 24.0249C18.8071 23.9959 18.8026 23.9603 18.7959 23.9247C18.7782 23.8291 18.7604 23.7312 18.7293 23.6311C18.6892 23.5065 18.6448 23.3797 18.587 23.2529C18.5848 23.2395 18.5759 23.2284 18.567 23.2195L18.2847 22.7034C18.2803 22.69 18.2714 22.6789 18.2603 22.6722C18.2025 22.5899 18.1425 22.5143 18.0913 22.4453L18.0713 22.4186L18.0869 22.4031L18.0424 22.363L17.958 22.2874L17.9513 22.2807L17.8468 22.1517L17.809 22.1027L17.7868 22.125C17.749 22.0871 17.7112 22.0582 17.6735 22.0293C17.6512 22.0115 17.6335 21.9915 17.6179 21.9737C17.609 21.9648 17.6001 21.9537 17.5912 21.9448L17.5601 21.9025L17.5645 21.8491C17.5712 21.8157 17.5846 21.7601 17.6223 21.7067C17.6579 21.6556 17.6824 21.6133 17.7068 21.571C17.7246 21.5532 17.7246 21.5198 17.7246 21.5065L17.8002 20.8413V20.8213L17.7935 20.8057L17.7668 20.7635C17.7401 20.7101 17.7135 20.6656 17.6801 20.6255L17.7224 20.4987C17.7224 20.4987 17.729 20.4809 17.7313 20.4698C17.7335 20.4653 17.7335 20.4587 17.7357 20.4564V20.4498L17.7401 20.4453C17.7601 20.3652 17.8113 20.165 17.689 19.9959C17.6446 19.9247 17.5623 19.8647 17.4534 19.8246L17.4023 19.8068H17.3934L16.7466 19.8046C16.7421 19.8046 16.7266 19.8002 16.7132 19.7935L16.2998 19.5043C16.2176 19.4442 16.1464 19.3752 16.0664 19.2796C15.922 19.0816 15.7019 19.0816 15.6308 19.0816H15.4285C15.4063 19.0816 15.3885 19.0816 15.3707 19.0771C15.2818 19.0482 15.1929 19.0326 15.1107 19.0326C14.8773 19.0326 14.675 19.1372 14.5127 19.224C14.4883 19.2395 14.4594 19.2551 14.4372 19.2618C14.3149 19.3263 14.1504 19.5354 14.006 19.7267L13.9748 19.7668C13.9748 19.7668 13.9504 19.7868 13.9348 19.7868H11.9877C11.9877 19.7868 11.9655 19.7846 11.9588 19.7779L11.6988 19.5265L11.6921 19.5176L11.6076 19.4353L11.5387 19.3663C11.312 19.1394 11.0986 18.9259 10.8364 18.7323C10.683 18.6166 10.5874 18.4186 10.4852 18.1917C10.474 18.1739 10.4696 18.1628 10.4652 18.1494C10.4585 18.1316 10.4496 18.1138 10.4385 18.0983C10.4318 18.0871 10.4251 18.076 10.4163 18.0649L9.87614 17.3419L9.86058 17.3263L9.84279 17.3063C9.79612 17.2507 9.74055 17.1884 9.69387 17.1283V17.1239L9.67609 17.0905C9.65609 17.0705 9.63164 17.0504 9.60052 17.026C9.62941 16.888 9.61163 16.7568 9.59607 16.6366L9.59163 16.6033C9.56718 16.3986 9.55384 16.2762 9.65386 16.1606C9.77834 16.0004 9.81612 15.8135 9.84724 15.6489L9.85168 15.6311L9.93615 15.1839C9.96282 14.9214 9.91837 14.6856 9.87614 14.4742C9.87169 14.4409 9.86502 14.4053 9.85613 14.3697C9.84502 14.3074 9.83168 14.2495 9.82723 14.1873C9.80945 14.0515 9.83168 14.0115 9.85835 13.9915C10.134 13.7779 10.3273 13.4932 10.4652 13.2707L10.6341 13.0037L10.6652 12.9548C10.6874 12.9192 10.7097 12.8836 10.7341 12.848C10.7541 12.8191 10.7741 12.7901 10.7919 12.759C10.9653 12.4965 11.2276 12.1784 11.7077 12.0627C11.9188 12.0093 12.1144 11.9047 12.29 11.749L12.3122 11.7735L12.35 11.7223L12.4434 11.6066L12.4545 11.591V11.5866L12.5456 11.502L12.5879 11.4642L12.5656 11.4398L12.5945 11.4042C12.6123 11.3775 12.6301 11.353 12.6501 11.3263C12.6834 11.2796 12.719 11.2306 12.7612 11.1772C12.9102 10.9659 13.0858 10.7679 13.2369 10.601C13.3814 10.4409 13.5303 10.274 13.6614 10.0827C13.6881 10.0493 13.7281 10.0048 13.7659 10.0048H13.9704L13.9793 10.0204L14.1127 10.254C14.146 10.3052 14.1949 10.3319 14.2482 10.3319C14.286 10.3319 14.3194 10.3185 14.3483 10.2963L14.5572 10.1272C14.6283 10.0693 14.7283 10.0427 14.8328 10.016L14.8817 10.0048C15.0351 9.96924 15.2018 9.92474 15.3529 9.80906C15.3596 9.80461 15.4107 9.77124 15.7063 9.77124H16.9222C17.1867 9.77124 17.4001 9.76234 17.6134 9.75344H17.6357C17.7868 9.75344 17.8668 9.8491 17.9335 9.94921C17.9624 9.99593 17.9691 10.0449 17.9624 10.0649C17.9557 10.0916 17.9469 10.1072 17.9157 10.1383L17.6757 10.3452C17.6401 10.3741 17.6201 10.4208 17.6223 10.472C17.6246 10.521 17.649 10.5677 17.689 10.5922L17.9602 10.7612C17.978 10.7724 17.9891 10.7812 18.0024 10.7901C18.0202 10.8013 18.0358 10.8124 18.0558 10.8235C18.2269 10.9348 18.4225 11.0616 18.6359 11.0883C18.6559 11.0883 18.6715 11.0927 18.6937 11.0994L18.7137 11.1038L18.8604 11.1305H18.8648L18.8715 11.135L19.0138 11.2017C19.1938 11.284 19.3627 11.4086 19.525 11.531C19.5517 11.5488 19.5739 11.5666 19.5961 11.5821C19.6206 11.5999 19.645 11.6177 19.6695 11.6333C19.8362 11.7468 20.0296 11.8202 20.2785 11.8602C20.3252 11.8713 20.3696 11.8713 20.4052 11.8713C20.5386 11.8713 20.7764 11.8224 20.8942 11.4976C20.9275 11.4064 20.9675 11.3285 21.012 11.2685L21.0653 11.1906L21.072 11.1795V11.1683L21.0765 11.1417L21.2298 11.086C21.2676 11.0705 21.3032 11.0638 21.3365 11.0638C21.4032 11.0638 21.4832 11.0883 21.5899 11.1417C21.8833 11.3285 22.1945 11.4487 22.5368 11.5087L22.7457 11.5421H22.8569L22.988 11.551H23.1325C23.2414 11.551 23.3548 11.551 23.477 11.5332C23.597 11.6645 23.7326 11.7267 23.8882 11.7267C24.0016 11.7267 24.1149 11.6934 24.275 11.6133L24.355 11.8736C24.3594 11.8869 24.3594 11.9025 24.355 11.9092L24.3283 11.9537C24.2994 11.9959 24.2994 12.0627 24.3283 12.1049L24.3861 12.2095C24.395 12.2251 24.3994 12.2384 24.4061 12.2562C24.4128 12.2696 24.4194 12.2851 24.4261 12.3007C24.555 12.6656 24.7551 12.9881 24.9329 13.2707C24.9685 13.333 25.0085 13.3975 25.0485 13.4598C25.0863 13.5243 25.124 13.5866 25.1596 13.6467L25.1641 13.6622L25.1729 13.68L25.2507 13.8157L25.3574 14.0249L25.373 14.0471L25.3797 14.0671C25.5908 14.4809 25.8042 14.9014 26.1554 15.2796L26.3065 15.4464L26.3176 15.4576L26.3621 15.5176C26.4043 15.5755 26.4421 15.64 26.4799 15.7045C26.5021 15.7401 26.5221 15.7757 26.5444 15.8091L26.5577 15.8313C26.68 16.0471 26.8089 16.2673 27.0178 16.4342C27.0445 16.4587 27.0734 16.4831 27.1 16.5076C27.1267 16.5343 27.1556 16.5588 27.1845 16.5855L27.189 16.5899L27.6202 16.9548C27.818 17.0972 27.8669 17.1928 27.838 17.373L27.7869 17.6845C27.7802 17.7312 27.7958 17.7779 27.8247 17.8113C27.8558 17.8469 27.9002 17.8669 27.9469 17.8669H27.9669L28.2848 17.8246C28.3337 17.8157 28.3803 17.8157 28.4203 17.8157C28.5715 17.8157 28.6315 17.8669 28.6626 17.9047L28.8071 18.0671C28.8316 18.0983 28.8738 18.1183 28.916 18.1183C28.9516 18.1183 28.9871 18.1049 29.0183 18.0805L29.185 17.9559C29.345 17.8335 29.5117 17.8157 29.654 17.8157C29.7451 17.8157 29.8451 17.8246 29.9429 17.8335C30.0407 17.8402 30.1541 17.8491 30.2585 17.8491H30.343C30.343 17.8491 30.3541 17.8491 30.3586 17.8513C30.3586 17.8625 30.3519 17.878 30.343 17.8958C30.1496 18.4431 29.8873 19.0037 29.5651 19.5643L29.4472 19.7646L29.3472 19.9225L29.3406 19.9359L29.3339 19.9425L29.3294 19.9492C29.2116 20.1383 29.0272 20.294 28.796 20.4809L28.7226 20.541L28.6537 20.5988C28.4159 20.8013 28.1892 21.0215 27.978 21.2507L27.5824 21.6867L27.5246 21.7512L27.5557 21.7601C27.4157 21.9425 27.2823 22.1383 27.1556 22.343C27.1245 22.3942 27.0734 22.472 27.0156 22.5477C26.9778 22.5988 26.9445 22.6455 26.9156 22.6878C26.9022 22.7101 26.8867 22.7301 26.8733 22.7501L26.8444 22.7946H26.8267C26.7377 22.7946 26.6688 22.8658 26.6688 22.9592L26.6777 23.0816V23.135L26.6866 23.3485C26.6866 23.373 26.6866 23.4042 26.6977 23.4375C26.7555 23.8691 26.8289 24.2963 27.0912 24.6789C27.1623 24.7835 27.1778 24.8903 27.1578 24.9503C27.1556 24.9548 27.1534 24.9681 27.1489 24.977C27.1489 24.9837 27.1489 24.9881 27.1445 24.9926V24.997L27.1423 25.0037L27.0667 25.3152V25.3196L27.0645 25.3263L27.0734 25.6489C27.0734 25.6823 27.0734 25.729 27.0823 25.769C27.0889 25.9047 27.0978 26.0338 27.0823 26.1606C27.0578 26.3964 26.8289 26.6433 26.5666 26.7167H26.5533L26.351 26.7679L26.3221 26.7768L26.062 26.917C25.7597 27.0794 25.4886 27.3174 25.2552 27.62C25.2263 27.6578 25.1952 27.6978 25.1863 27.7512L25.1374 27.8691C25.1196 27.9381 25.1307 27.9937 25.1663 28.0293L25.2552 28.1339C25.2819 28.165 25.2841 28.1873 25.2774 28.2874V28.4342C25.3019 28.6945 25.2774 28.8814 25.1996 29.0104L25.1529 29.0905C25.1529 29.0905 25.1418 29.1038 25.1396 29.1105L25.0574 29.1706C24.9751 29.2284 24.8707 29.2729 24.7551 29.3041C24.3994 29.3975 24.2083 29.8157 24.2794 30.1116C24.3639 30.4987 24.1816 30.69 23.8504 30.997L23.8304 31.0148C23.7793 31.0571 23.7348 31.0972 23.6904 31.1417L23.6726 31.1594L23.657 31.175L23.5326 31.2907L23.5215 31.3018L23.3859 31.3953C22.9724 31.6956 22.4946 31.8669 22.0411 32.0182C21.8411 32.0871 21.6566 32.1072 21.4943 32.1227H21.4654V32.125ZM24.2438 35.769C23.7015 35.9158 23.1169 36.0382 22.5034 36.1316C22.4212 35.8335 22.17 35.6066 21.8589 35.551L21.5499 32.6099C21.7388 32.5922 21.9544 32.5655 22.1789 32.4854C22.6657 32.3185 23.1414 32.145 23.5815 31.8402L24.595 34.9637C24.3372 35.1461 24.1994 35.4598 24.2438 35.769ZM27.4268 34.5388C26.9133 34.8057 26.3799 35.0438 25.7975 35.2685C25.6553 34.9948 25.373 34.8213 25.064 34.8213H25.0462L23.9771 31.5265H23.9793L23.9882 31.5221L23.9949 31.5154C24.0371 31.4754 24.0838 31.4264 24.1394 31.3886C24.4439 31.115 24.8573 30.7479 24.7151 30.0716C24.6951 29.9781 24.7751 29.818 24.8751 29.7935C25.0151 29.7579 25.1485 29.7045 25.2707 29.6311L27.6113 33.6934C27.389 33.9158 27.3179 34.2451 27.4268 34.541V34.5388ZM28.8449 33.7201C28.6849 33.5287 28.4515 33.4175 28.2114 33.4175C28.1403 33.4175 28.0803 33.4264 28.018 33.442L25.6064 29.2662C25.7242 29.0527 25.7642 28.7835 25.7308 28.4453V28.3586C25.7397 28.2495 25.7375 28.0827 25.6286 27.9292C25.822 27.6756 26.042 27.482 26.2843 27.353L30.2808 31.8002C30.1207 32.0671 30.123 32.4097 30.2852 32.6656C29.7673 33.0838 29.2939 33.4309 28.8449 33.7201ZM31.5211 31.5443C31.5211 31.5443 31.5033 31.5621 31.4922 31.571C31.3477 31.4576 31.1676 31.393 30.9809 31.393C30.8609 31.393 30.7431 31.422 30.6253 31.4731L26.7511 27.1706C27.1667 27.0237 27.4935 26.6389 27.5268 26.2473C27.5446 26.0849 27.5357 25.9314 27.5268 25.7801L32.4991 29.3953C32.3968 29.6934 32.4679 30.0182 32.6858 30.2451C32.3435 30.6789 31.9612 31.1038 31.5211 31.5443ZM33.6482 28.9259C33.5371 28.8702 33.4104 28.8413 33.2881 28.8413C33.1125 28.8413 32.9303 28.9036 32.7836 29.0126L27.5602 25.2106C27.5646 25.1861 27.5713 25.1639 27.5824 25.1372C27.6557 24.9348 27.6135 24.6834 27.469 24.4653C27.2801 24.1873 27.2179 23.8713 27.1578 23.4642L34.1839 26.5944C34.1439 26.9081 34.2861 27.2173 34.5506 27.3886C34.275 27.927 33.9727 28.4431 33.6482 28.9259ZM35.2108 25.8891C35.1397 25.8691 35.0708 25.8602 35.0085 25.8602C34.7662 25.8602 34.5395 25.9648 34.3795 26.1494L27.2956 22.9948C27.3179 22.9614 27.3401 22.9281 27.3668 22.8903C27.4179 22.8213 27.469 22.7546 27.5179 22.6789C27.6868 22.4164 27.858 22.1761 28.0225 21.9626L35.2419 23.4998C35.2664 23.8068 35.4664 24.0805 35.7554 24.2028C35.5975 24.7857 35.4153 25.353 35.2108 25.8891ZM36.0954 22.5922H36.0665C35.762 22.5922 35.4797 22.759 35.3397 23.0215L28.3848 21.5399C28.5915 21.3196 28.776 21.1461 28.9582 20.9948C28.9827 20.9726 29.0049 20.9548 29.0272 20.937C29.0516 20.917 29.0761 20.8969 29.0983 20.8747C29.3183 20.6945 29.5495 20.5054 29.714 20.2473C29.7184 20.2451 29.7229 20.2406 29.7251 20.234H35.6375C35.7265 20.5343 35.9754 20.7568 36.2844 20.8146C36.251 21.4153 36.1888 21.9982 36.0954 22.5922ZM35.6375 19.7534H30.0096C30.3052 19.2284 30.5631 18.6722 30.772 18.0983C30.7942 18.0382 30.8098 17.9826 30.8142 17.9314L35.3486 16.9681C35.4886 17.2284 35.7687 17.3953 36.0754 17.3953H36.1021C36.1999 18.0115 36.2599 18.5944 36.2866 19.175C35.9754 19.2329 35.7265 19.4553 35.6375 19.7534Z" fill="var(--fill-0, black)"/>
<path id="Vector_4" d="M46.7815 17.0341L46.3325 15.3144H44.3787L43.9386 17.0341H42.3849L44.3165 9.89062H46.4836L48.4152 17.0341H46.7792H46.7815ZM45.4011 11.3745H45.3189L44.6232 14.0753H46.0946L45.3989 11.3745H45.4011Z" fill="var(--fill-0, black)"/>
<path id="Vector_5" d="M51.6982 17.1561C50.7446 17.1561 50.0378 16.8335 49.5777 16.1883C49.1176 15.5432 48.8887 14.6355 48.8887 13.4608C48.8887 12.2862 49.1176 11.3785 49.5777 10.7334C50.0378 10.0882 50.7446 9.76562 51.6982 9.76562C52.0672 9.76562 52.3917 9.81457 52.674 9.91468C52.9563 10.0148 53.2008 10.1527 53.4053 10.3285C53.6097 10.5064 53.7787 10.72 53.912 10.9736C54.0454 11.225 54.1499 11.5098 54.2232 11.8235L52.7918 12.1705C52.7518 11.9992 52.7029 11.8435 52.6495 11.6989C52.5962 11.5543 52.5251 11.4319 52.4406 11.3296C52.3561 11.2272 52.2494 11.1472 52.1227 11.0893C51.996 11.0315 51.8449 11.0026 51.6671 11.0026C51.2514 11.0026 50.9558 11.165 50.7824 11.4898C50.6091 11.8146 50.5224 12.2617 50.5224 12.8357V14.0838C50.5224 14.6577 50.6091 15.1049 50.7824 15.4297C50.9558 15.7545 51.2514 15.9169 51.6671 15.9169C52.0205 15.9169 52.2783 15.8079 52.4384 15.5899C52.5984 15.3719 52.7162 15.0915 52.7918 14.7512L54.2232 15.0982C54.1476 15.4119 54.0432 15.6944 53.912 15.948C53.7787 16.1994 53.6097 16.4175 53.4053 16.5977C53.2008 16.7779 52.9563 16.9158 52.674 17.0115C52.3917 17.1071 52.0649 17.1538 51.6982 17.1538V17.1561Z" fill="var(--fill-0, black)"/>
<path id="Vector_6" d="M59.0509 17.0341L58.6019 15.3144H56.6481L56.208 17.0341H54.6543L56.5859 9.89062H58.753L60.6846 17.0341H59.0487H59.0509ZM57.6706 11.3745H57.5883L56.8926 14.0753H58.3641L57.6684 11.3745H57.6706Z" fill="var(--fill-0, black)"/>
<path id="Vector_7" d="M61.3906 9.88894H63.6911C64.6514 9.88894 65.3649 10.196 65.8294 10.81C66.2917 11.424 66.5251 12.3072 66.5251 13.4596C66.5251 14.612 66.294 15.4952 65.8294 16.1092C65.3649 16.7232 64.6536 17.0302 63.6911 17.0302H61.3906V9.88672V9.88894ZM63.5889 15.8244C64.0446 15.8244 64.3802 15.6776 64.5914 15.3839C64.8025 15.0903 64.9092 14.6631 64.9092 14.1047V12.8055C64.9092 12.2538 64.8025 11.8289 64.5914 11.5374C64.3802 11.2438 64.0468 11.097 63.5889 11.097H62.9043V15.8244H63.5889Z" fill="var(--fill-0, black)"/>
<path id="Vector_8" d="M67.6914 17.0341V9.89062H72.2524V11.1498H69.2251V12.7872H72.1502V14.0464H69.2251V15.7749H72.2524V17.0341H67.6914Z" fill="var(--fill-0, black)"/>
<path id="Vector_9" d="M77.4643 13.8506L77.5466 11.855H77.4555L76.1263 15.528L74.7971 11.855H74.7059L74.7882 13.8506V17.0341H73.459V9.89062H75.2683L76.1485 12.2955H76.2307L77.1109 9.89062H78.798V17.0341H77.4688V13.8506H77.4643Z" fill="var(--fill-0, black)"/>
<path id="Vector_10" d="M81.7468 17.0341V14.5069L79.4863 9.89062H81.1934L81.9491 11.548L82.5004 12.9496H82.5826L83.1338 11.548L83.8896 9.89062H85.5366L83.2761 14.5069V17.0341H81.7424H81.7468Z" fill="var(--fill-0, black)"/>
<path id="Vector_11" d="M46.8562 31.3877L46.3094 29.2943H43.9311L43.3954 31.3877H41.5039L43.8556 22.6914H46.4939L48.8456 31.3877H46.854H46.8562ZM45.1759 24.4979H45.0758L44.229 27.786H46.0205L45.1736 24.4979H45.1759Z" fill="var(--fill-0, black)"/>
<path id="Vector_12" d="M49.9062 31.3877V22.6914H55.6698V24.2242H51.7733V26.2175H55.2586V27.7504H51.7733V31.3877H49.9062Z" fill="var(--fill-0, black)"/>
<path id="Vector_13" d="M59.0419 31.3877H57.1992V22.6914H60.56C60.9823 22.6914 61.3602 22.7559 61.6936 22.885C62.0248 23.014 62.3048 23.1986 62.5338 23.4389C62.7627 23.6792 62.9339 23.9706 63.0494 24.311C63.165 24.6514 63.2228 25.034 63.2228 25.4567C63.2228 26.0707 63.0894 26.598 62.8249 27.0385C62.5582 27.4789 62.1826 27.7704 61.6913 27.9105L63.3962 31.3855H61.3557L59.8998 28.1597H59.0396V31.3855L59.0419 31.3877ZM60.1132 26.7159C60.5533 26.7159 60.8578 26.6336 61.029 26.4667C61.1979 26.2999 61.2846 26.0262 61.2846 25.6436V25.2698C61.2846 24.8872 61.2001 24.6135 61.029 24.4467C60.8578 24.2798 60.5533 24.1975 60.1132 24.1975H59.0419V26.7137H60.1132V26.7159Z" fill="var(--fill-0, black)"/>
<path id="Vector_14" d="M64.6562 31.39V30.0062H66.5233V24.0752H64.6562V22.6914H70.2575V24.0752H68.3904V30.0062H70.2575V31.39H64.6562Z" fill="var(--fill-0, black)"/>
<path id="Vector_15" d="M75.1242 31.5391C73.9617 31.5391 73.1015 31.1475 72.5414 30.3622C71.9812 29.5769 71.7012 28.4712 71.7012 27.043C71.7012 25.6147 71.9812 24.5068 72.5414 23.7237C73.1015 22.9384 73.9617 22.5469 75.1242 22.5469C75.5732 22.5469 75.9688 22.6069 76.3133 22.7271C76.6579 22.8472 76.9535 23.0163 77.2024 23.2321C77.4514 23.4479 77.6559 23.7104 77.8181 24.0174C77.9804 24.3244 78.1071 24.6692 78.1982 25.0519L76.4556 25.4746C76.4067 25.2677 76.3467 25.0764 76.2822 24.9006C76.2155 24.7271 76.1311 24.5758 76.0266 24.4512C75.9221 24.3266 75.7932 24.2287 75.6398 24.1576C75.4865 24.0864 75.302 24.0508 75.0864 24.0508C74.5796 24.0508 74.2217 24.2488 74.0106 24.6425C73.7994 25.0363 73.6927 25.5836 73.6927 26.2799V27.7994C73.6927 28.4979 73.7994 29.043 74.0106 29.4368C74.2217 29.8305 74.5818 30.0285 75.0864 30.0285C75.5176 30.0285 75.831 29.895 76.0266 29.6303C76.2222 29.3656 76.3645 29.0252 76.4556 28.6092L78.1982 29.0319C78.1071 29.4145 77.9804 29.7593 77.8181 30.0663C77.6559 30.3733 77.4514 30.6381 77.2024 30.8583C76.9535 31.0786 76.6556 31.2477 76.3133 31.3633C75.9688 31.479 75.5732 31.5369 75.1242 31.5369V31.5391Z" fill="var(--fill-0, black)"/>
<path id="Vector_16" d="M84.075 31.3877L83.5282 29.2943H81.1499L80.6142 31.3877H78.7227L81.0743 22.6914H83.7127L86.0643 31.3877H84.0728H84.075ZM82.3946 24.4979H82.2946L81.4477 27.786H83.2392L82.3924 24.4979H82.3946Z" fill="var(--fill-0, black)"/>
</g>
<defs>
<clipPath id="clip0_4750_90203">
<rect width="88" height="40" fill="white"/>
</clipPath>
</defs>
</svg>
