<svg preserveAspectRatio="none" width="100%" height="100%" overflow="visible" style="display: block;" viewBox="0 0 73 32" fill="none" xmlns="http://www.w3.org/2000/svg">
<g id="CfA logo BW" clip-path="url(#clip0_4750_90170)">
<path id="Path 185" d="M72.1733 20.8125H69.98V22.0452H70.7604V22.8817H68.9531V26.2435H71.0068V24.9908H70.3455V24.1304H72.1651V24.0663V20.8645L72.1733 20.8125Z" fill="var(--fill-0, black)"/>
<path id="Path 186" d="M54.1648 6.2795H45.2272V5.375H64.1209V2.26927H47.2809V1.23269H55.1505V0H45.6708V3.37388H62.5108V4.27438H43.6172V7.37611H54.1648V6.2795Z" fill="var(--fill-0, black)"/>
<path id="Path 187" d="M44.1548 10.7641V9.88765H67.3201V6.75391H55.2528V7.85052H65.6772V8.76703H42.5078V11.8568H43.4155H71.0167V12.7452H49.979V15.891H61.1591V14.7744H51.626V13.8539H72.6596V10.7641H44.1548Z" fill="var(--fill-0, black)"/>
<path id="Path 188" d="M60.0775 22.3404V23.425H65.914V24.3375H55.0625V27.4713H62.8664V28.3478H57.8966V31.6376H61.971V30.3889H59.5354V29.4484H64.5217V26.3587H62.8787H56.7178V25.4261H67.5693V22.3164L60.0775 22.3404Z" fill="var(--fill-0, black)"/>
<path id="Path 189" d="M62.2248 14.2969V15.4135H69.0429V16.294H54.8398V19.3837H55.4436H65.3957V20.2842H55.9776V23.418H59.0047V22.3213H57.6205V21.4168H67.0427V18.3111H56.4828V17.4146H70.6859V14.2969H62.2248Z" fill="var(--fill-0, black)"/>
<path id="Vector" d="M1.66797 17.2968C1.66797 14.5673 3.06446 13.0464 5.25366 13.0464C5.89851 13.002 6.54108 13.1593 7.08778 13.4955C7.63448 13.8317 8.05675 14.3292 8.29308 14.9155L6.93355 15.6119C6.83876 15.2512 6.61795 14.9341 6.3091 14.7149C6.00025 14.4958 5.62267 14.3884 5.24134 14.4112C4.07486 14.4112 3.32322 15.2357 3.32322 16.6204V17.8971C3.32322 19.2899 4.07486 20.0784 5.24134 20.0784C5.6444 20.0841 6.03834 19.9613 6.36312 19.7286C6.6879 19.496 6.92573 19.1662 7.04035 18.7896L8.31772 19.522C8.06618 20.1085 7.63672 20.606 7.08689 20.9479C6.53705 21.2898 5.89311 21.4598 5.24134 21.4351C3.06446 21.4231 1.66797 20.0223 1.66797 17.2968Z" fill="var(--fill-0, black)"/>
<path id="Vector_2" d="M9.42188 17.2333C9.42188 14.4958 10.8635 13.043 13.0445 13.043C15.2255 13.043 16.6672 14.4958 16.6672 17.2333C16.6672 19.9708 15.2378 21.4196 13.0445 21.4196C10.8512 21.4196 9.42188 19.9748 9.42188 17.2333ZM14.9996 17.8617V16.617C14.9996 15.2322 14.2357 14.4077 13.0445 14.4077C11.8534 14.4077 11.0894 15.2322 11.0894 16.617V17.8697C11.0894 19.2504 11.8534 20.0749 13.0445 20.0749C14.2357 20.0749 14.9996 19.2424 14.9996 17.8617Z" fill="var(--fill-0, black)"/>
<path id="Vector_3" d="M18.5234 13.1797H21.5464C23.7151 13.1797 25.1362 14.5364 25.1362 17.2299C25.1362 19.9234 23.7151 21.2842 21.5464 21.2842H18.5234V13.1797ZM21.5464 19.9234C22.717 19.9234 23.4645 19.2511 23.4645 17.8703V16.6136C23.4645 15.2328 22.717 14.5565 21.5464 14.5565H20.076V19.9435L21.5464 19.9234Z" fill="var(--fill-0, black)"/>
<path id="Vector_4" d="M26.9922 21.2842V13.1797H32.4713V14.5364H28.5612V16.5015H32.0195V17.8583H28.5612V19.9234H32.4713V21.2842H26.9922Z" fill="var(--fill-0, black)"/>
<path id="Vector_5" d="M6.13176 31.6436L5.5362 29.7145H2.75965L2.1641 31.6436H0.328125L3.07181 23.5391H5.31029L8.01291 31.6436H6.13176ZM4.16436 25.144H4.10685L3.19093 28.2217H5.09672L4.16436 25.144Z" fill="var(--fill-0, black)"/>
<path id="Vector_6" d="M10.3594 31.6436V23.5391H15.8755V25.1079H12.1789V26.7689H15.3374V28.3217H12.1789V31.6436H10.3594Z" fill="var(--fill-0, black)"/>
<path id="Vector_7" d="M20.3309 31.6436H18.5195V23.5391H22.4626C23.9987 23.5391 24.9762 24.5836 24.9762 26.1285C24.9762 27.2211 24.4751 28.0896 23.4647 28.4618L25.1077 31.6636H23.0951L21.6411 28.6899H20.3432L20.3309 31.6436ZM22.2367 27.1851C22.3502 27.1989 22.4654 27.1881 22.5741 27.1535C22.6828 27.1188 22.7823 27.0612 22.8655 26.9847C22.9487 26.9082 23.0135 26.8148 23.0553 26.711C23.0972 26.6073 23.1149 26.4959 23.1074 26.3846V25.8724C23.1149 25.7612 23.0972 25.6497 23.0553 25.546C23.0135 25.4422 22.9487 25.3488 22.8655 25.2723C22.7823 25.1958 22.6828 25.1382 22.5741 25.1036C22.4654 25.0689 22.3502 25.0581 22.2367 25.0719H20.3309V27.1851H22.2367Z" fill="var(--fill-0, black)"/>
<path id="Vector_8" d="M27.418 31.6436V30.2228H28.49V24.9438H27.418V23.5391H31.3733V24.9438H30.3013V30.2228H31.3733V31.6276L27.418 31.6436Z" fill="var(--fill-0, black)"/>
<path id="Vector_9" d="M33.7539 27.6527C33.7539 24.9152 35.1956 23.4023 37.4505 23.4023C38.9743 23.4023 39.9519 24.0067 40.5597 25.3074L38.999 26.1079C38.9236 25.7698 38.7254 25.4698 38.4408 25.2631C38.1562 25.0564 37.8044 24.957 37.4505 24.9832C36.3908 24.9832 35.6885 25.6796 35.6885 26.9563V28.2571C35.6885 29.5338 36.3908 30.2301 37.4505 30.2301C37.8211 30.2312 38.1819 30.1146 38.4784 29.898C38.7748 29.6813 38.9907 29.3764 39.0934 29.0295L40.5721 29.8659C40.3153 30.4624 39.8775 30.9681 39.3173 31.315C38.7571 31.662 38.1014 31.8337 37.4382 31.807C35.1956 31.787 33.7539 30.3942 33.7539 27.6527Z" fill="var(--fill-0, black)"/>
<path id="Vector_10" d="M48.0491 31.6436L47.4536 29.7145H44.677L44.0815 31.6436H42.2578L45.0015 23.5391H47.24L49.9426 31.6436H48.0491ZM46.0817 25.144H46.0242L45.1083 28.2217H47.0141L46.0817 25.144Z" fill="var(--fill-0, black)"/>
<path id="Vector_11" d="M35.2734 21.1718V17.1016H37.6598V17.4177H35.6308V18.9586H37.5242V19.2668H35.6308V21.1798L35.2734 21.1718Z" fill="var(--fill-0, black)"/>
<path id="Vector_12" d="M38.875 19.1364C38.875 17.7597 39.5198 17.0312 40.5877 17.0312C41.6556 17.0312 42.2923 17.7597 42.2923 19.1364C42.2923 20.5132 41.6474 21.2416 40.5877 21.2416C39.5281 21.2416 38.875 20.5132 38.875 19.1364ZM41.9103 19.3926V18.8803C41.9103 17.9117 41.3846 17.3474 40.5877 17.3474C39.7909 17.3474 39.257 17.9117 39.257 18.8803V19.3926C39.257 20.3611 39.7868 20.9294 40.5877 20.9294C41.3887 20.9294 41.9103 20.3611 41.9103 19.3926Z" fill="var(--fill-0, black)"/>
<path id="Vector_13" d="M44.2208 21.1718H43.8594V17.1016H45.5023C45.7847 17.1144 46.0528 17.2269 46.2565 17.4179C46.4603 17.6089 46.5859 17.8655 46.61 18.1401C46.6341 18.4146 46.5551 18.6883 46.3876 18.9102C46.2201 19.1322 45.9756 19.2874 45.6995 19.3468L46.7263 21.1718H46.3156L45.3134 19.3668H44.2085L44.2208 21.1718ZM45.5023 19.0707C45.599 19.0795 45.6965 19.0678 45.7882 19.0365C45.8798 19.0052 45.9634 18.9549 46.0332 18.8891C46.1031 18.8234 46.1575 18.7436 46.1927 18.6555C46.228 18.5673 46.2433 18.4727 46.2375 18.3783V18.0981C46.2427 18.004 46.2269 17.9099 46.1914 17.8222C46.1559 17.7345 46.1014 17.6553 46.0316 17.59C45.9618 17.5247 45.8784 17.4748 45.7871 17.4437C45.6958 17.4125 45.5986 17.401 45.5023 17.4097H44.2208V19.0707H45.5023Z" fill="var(--fill-0, black)"/>
</g>
<defs>
<clipPath id="clip0_4750_90170">
<rect width="73" height="32" fill="white"/>
</clipPath>
</defs>
</svg>
