<svg preserveAspectRatio="none" width="100%" height="100%" overflow="visible" style="display: block;" viewBox="0 0 18.6668 16.1667" fill="none" xmlns="http://www.w3.org/2000/svg">
<path id="Icon" d="M12.6667 1.3898C13.9015 2.00343 14.75 3.27762 14.75 4.75C14.75 6.22238 13.9015 7.49657 12.6667 8.1102M14.3334 12.472C15.5929 13.0419 16.7271 13.9708 17.6667 15.1667M1.00004 15.1667C2.62212 13.1021 4.82436 11.8333 7.25004 11.8333C9.67573 11.8333 11.878 13.1021 13.5 15.1667M11 4.75C11 6.82107 9.32111 8.5 7.25004 8.5C5.17897 8.5 3.50004 6.82107 3.50004 4.75C3.50004 2.67893 5.17897 1 7.25004 1C9.32111 1 11 2.67893 11 4.75Z" stroke="var(--stroke-0, #333435)" stroke-width="2" stroke-linecap="round" stroke-linejoin="round"/>
</svg>
