<svg preserveAspectRatio="none" width="100%" height="100%" overflow="visible" style="display: block;" viewBox="0 0 18.5519 17.8333" fill="none" xmlns="http://www.w3.org/2000/svg">
<path id="Icon" d="M1.35928 10.1667H6.35928M12.1926 10.1667H17.1926M9.27595 5.16667V16.8333M9.27595 5.16667C10.4265 5.16667 11.3593 4.23393 11.3593 3.08333M9.27595 5.16667C8.12535 5.16667 7.19261 4.23393 7.19261 3.08333M2.60928 16.8333L15.9426 16.8333M2.60928 3.08334L7.19261 3.08333M7.19261 3.08333C7.19261 1.93274 8.12535 1 9.27595 1C10.4265 1 11.3593 1.93274 11.3593 3.08333M11.3593 3.08333L15.9426 3.08333M6.67631 11.2803C6.3424 12.5588 5.2077 13.5 3.85928 13.5C2.51086 13.5 1.37616 12.5588 1.04225 11.2803C1.01497 11.1758 1.00132 11.1236 1.00001 10.9149C0.999202 10.787 1.04675 10.492 1.08771 10.3708C1.15453 10.173 1.22687 10.0614 1.37154 9.83823L3.85928 6L6.34702 9.83823C6.49169 10.0614 6.56403 10.173 6.63085 10.3708C6.67181 10.492 6.71936 10.787 6.71855 10.9149C6.71724 11.1236 6.7036 11.1758 6.67631 11.2803ZM17.5096 11.2803C17.1757 12.5588 16.041 13.5 14.6926 13.5C13.3442 13.5 12.2095 12.5588 11.8756 11.2803C11.8483 11.1758 11.8347 11.1236 11.8333 10.9149C11.8325 10.787 11.8801 10.492 11.921 10.3708C11.9879 10.173 12.0602 10.0614 12.2049 9.83823L14.6926 6L17.1804 9.83823C17.325 10.0614 17.3974 10.173 17.4642 10.3708C17.5051 10.492 17.5527 10.787 17.5519 10.9149C17.5506 11.1236 17.5369 11.1758 17.5096 11.2803Z" stroke="var(--stroke-0, #333435)" stroke-width="2" stroke-linecap="round" stroke-linejoin="round"/>
</svg>
