<svg preserveAspectRatio="none" width="100%" height="100%" overflow="visible" style="display: block;" viewBox="0 0 18.6667 18.6667" fill="none" xmlns="http://www.w3.org/2000/svg">
<path id="Icon" d="M16 9.33333C16 13.0152 13.0152 16 9.33333 16M16 9.33333C16 5.65144 13.0152 2.66667 9.33333 2.66667M16 9.33333H2.66667M9.33333 16C5.65144 16 2.66667 13.0152 2.66667 9.33333M9.33333 16C11.0009 14.1744 11.949 11.8053 12.0005 9.33333C11.949 6.86136 11.0009 4.49224 9.33333 2.66667M9.33333 16C7.66581 14.1744 6.71862 11.8053 6.66713 9.33333C6.71862 6.86136 7.66581 4.49224 9.33333 2.66667M2.66667 9.33333C2.66667 5.65144 5.65144 2.66667 9.33333 2.66667M4.33333 16C4.33333 16.9205 3.58714 17.6667 2.66667 17.6667C1.74619 17.6667 1 16.9205 1 16C1 15.0795 1.74619 14.3333 2.66667 14.3333C3.58714 14.3333 4.33333 15.0795 4.33333 16ZM17.6667 16C17.6667 16.9205 16.9205 17.6667 16 17.6667C15.0795 17.6667 14.3333 16.9205 14.3333 16C14.3333 15.0795 15.0795 14.3333 16 14.3333C16.9205 14.3333 17.6667 15.0795 17.6667 16ZM4.33333 2.66667C4.33333 3.58714 3.58714 4.33333 2.66667 4.33333C1.74619 4.33333 1 3.58714 1 2.66667C1 1.74619 1.74619 1 2.66667 1C3.58714 1 4.33333 1.74619 4.33333 2.66667ZM17.6667 2.66667C17.6667 3.58714 16.9205 4.33333 16 4.33333C15.0795 4.33333 14.3333 3.58714 14.3333 2.66667C14.3333 1.74619 15.0795 1 16 1C16.9205 1 17.6667 1.74619 17.6667 2.66667Z" stroke="var(--stroke-0, #333435)" stroke-width="2" stroke-linecap="round" stroke-linejoin="round"/>
</svg>
