<svg preserveAspectRatio="none" width="100%" height="100%" overflow="visible" style="display: block;" viewBox="0 0 18.6667 18.6667" fill="none" xmlns="http://www.w3.org/2000/svg">
<path id="Icon" d="M10.6079 6.29321C10.1309 6.63329 9.54715 6.83333 8.91667 6.83333C7.30584 6.83333 6.00001 5.5275 6.00001 3.91667C6.00001 2.30584 7.30584 1 8.91667 1C9.96083 1 10.8768 1.54868 11.3921 2.37345M4.33334 16.0726H6.50858C6.7922 16.0726 7.07408 16.1064 7.34902 16.1739L9.64742 16.7324C10.1461 16.8539 10.6657 16.8657 11.1696 16.7678L13.7108 16.2734C14.3821 16.1427 14.9997 15.8212 15.4836 15.3504L17.2816 13.6014C17.795 13.1028 17.795 12.2937 17.2816 11.7942C16.8193 11.3445 16.0873 11.2939 15.5643 11.6753L13.4688 13.204C13.1687 13.4234 12.8036 13.5415 12.4281 13.5415H10.4046L11.6926 13.5415C12.4185 13.5415 13.0066 12.9694 13.0066 12.2633V12.0076C13.0066 11.4212 12.5963 10.91 12.0117 10.7682L10.0238 10.2848C9.70032 10.2063 9.36901 10.1667 9.03596 10.1667C8.23195 10.1667 6.77658 10.8323 6.77658 10.8323L4.33334 11.8541M16 4.75C16 6.36083 14.6942 7.66667 13.0833 7.66667C11.4725 7.66667 10.1667 6.36083 10.1667 4.75C10.1667 3.13917 11.4725 1.83333 13.0833 1.83333C14.6942 1.83333 16 3.13917 16 4.75ZM1.00001 11.5L1.00001 16.3333C1.00001 16.8 1.00001 17.0334 1.09083 17.2117C1.17073 17.3685 1.29821 17.4959 1.45501 17.5758C1.63327 17.6667 1.86663 17.6667 2.33334 17.6667H3.00001C3.46672 17.6667 3.70007 17.6667 3.87833 17.5758C4.03513 17.4959 4.16262 17.3685 4.24251 17.2117C4.33334 17.0334 4.33334 16.8 4.33334 16.3333V11.5C4.33334 11.0333 4.33334 10.7999 4.24251 10.6217C4.16262 10.4649 4.03513 10.3374 3.87833 10.2575C3.70007 10.1667 3.46672 10.1667 3.00001 10.1667L2.33334 10.1667C1.86663 10.1667 1.63327 10.1667 1.45501 10.2575C1.29821 10.3374 1.17073 10.4649 1.09083 10.6217C1.00001 10.7999 1.00001 11.0333 1.00001 11.5Z" stroke="var(--stroke-0, #333435)" stroke-width="2" stroke-linecap="round" stroke-linejoin="round"/>
</svg>
