<svg preserveAspectRatio="none" width="100%" height="100%" overflow="visible" style="display: block;" viewBox="0 0 16.1667 18.6667" fill="none" xmlns="http://www.w3.org/2000/svg">
<path id="Icon" d="M3.83333 8.87037V11.1852M3.83333 8.87037V3.31481C3.83333 2.54775 4.4676 1.92593 5.25 1.92593C6.0324 1.92593 6.66667 2.54775 6.66667 3.31481M3.83333 8.87037C3.83333 8.10331 3.19907 7.48148 2.41667 7.48148C1.63426 7.48148 1 8.10331 1 8.87037V10.7222C1 14.5575 4.17132 17.6667 8.08333 17.6667C11.9954 17.6667 15.1667 14.5575 15.1667 10.7222V6.09259C15.1667 5.32553 14.5324 4.7037 13.75 4.7037C12.9676 4.7037 12.3333 5.32553 12.3333 6.09259M6.66667 3.31481V8.40741M6.66667 3.31481V2.38889C6.66667 1.62183 7.30093 1 8.08333 1C8.86574 1 9.5 1.62183 9.5 2.38889V3.31481M9.5 3.31481V8.40741M9.5 3.31481C9.5 2.54775 10.1343 1.92593 10.9167 1.92593C11.6991 1.92593 12.3333 2.54775 12.3333 3.31481V6.09259M12.3333 6.09259V8.40741" stroke="var(--stroke-0, #333435)" stroke-width="2" stroke-linecap="round" stroke-linejoin="round"/>
</svg>
