<svg preserveAspectRatio="none" width="100%" height="100%" overflow="visible" style="display: block;" viewBox="0 0 17.5045 17.5045" fill="none" xmlns="http://www.w3.org/2000/svg">
<path id="Icon" d="M5.54216 6.24889C6.12216 7.4569 6.91281 8.58911 7.91413 9.59042C8.91544 10.5917 10.0476 11.3824 11.2557 11.9624C11.3596 12.0123 11.4115 12.0372 11.4773 12.0564C11.7109 12.1245 11.9978 12.0756 12.1956 11.9339C12.2513 11.894 12.2989 11.8464 12.3942 11.7511C12.6855 11.4598 12.8312 11.3141 12.9777 11.2189C13.5301 10.8597 14.2423 10.8597 14.7947 11.2189C14.9411 11.3141 15.0868 11.4598 15.3781 11.7511L15.5405 11.9135C15.9834 12.3564 16.2048 12.5778 16.3251 12.8157C16.5644 13.2886 16.5644 13.8472 16.3251 14.3201C16.2048 14.558 15.9834 14.7794 15.5405 15.2223L15.4092 15.3536C14.9678 15.795 14.7471 16.0157 14.4471 16.1842C14.1142 16.3712 13.5971 16.5057 13.2153 16.5045C12.8711 16.5035 12.636 16.4368 12.1656 16.3033C9.63776 15.5858 7.25246 14.2321 5.26248 12.2421C3.27249 10.2521 1.91876 7.86679 1.20129 5.33896C1.06778 4.86858 1.00103 4.6334 1.00001 4.28928C0.99887 3.90742 1.13334 3.39035 1.32036 3.05743C1.4889 2.7574 1.70957 2.53672 2.15092 2.09537L2.28229 1.96401C2.72516 1.52114 2.94659 1.29971 3.18441 1.17942C3.65738 0.940194 4.21593 0.940194 4.6889 1.17942C4.92671 1.29971 5.14815 1.52114 5.59102 1.96401L5.75341 2.1264C6.04475 2.41774 6.19042 2.56341 6.28565 2.70989C6.64482 3.2623 6.64482 3.97445 6.28565 4.52686C6.19042 4.67334 6.04475 4.81901 5.75341 5.11035C5.65815 5.20561 5.61052 5.25324 5.57065 5.30891C5.42897 5.50677 5.38006 5.79365 5.44816 6.02728C5.46732 6.09303 5.49227 6.14498 5.54216 6.24889Z" stroke="var(--stroke-0, #333435)" stroke-width="2" stroke-linecap="round" stroke-linejoin="round"/>
</svg>
