<svg preserveAspectRatio="none" width="100%" height="100%" overflow="visible" style="display: block;" viewBox="0 0 17.5066 16.1667" fill="none" xmlns="http://www.w3.org/2000/svg">
<path id="Icon" d="M7.75662 6.00186C7.90345 5.58447 8.19326 5.2325 8.57473 5.00831C8.9562 4.78412 9.4047 4.70217 9.8408 4.77697C10.2769 4.85178 10.6725 5.07851 10.9574 5.41701C11.2424 5.7555 11.3983 6.18393 11.3977 6.6264C11.3977 7.87547 9.52405 8.5 9.52405 8.5M9.54821 11H9.55654M9.42329 15.1667C13.3353 15.1667 16.5066 11.9954 16.5066 8.08333C16.5066 4.17132 13.3353 1 9.42329 1C5.51127 1 2.33995 4.17132 2.33995 8.08333C2.33995 8.875 2.46983 9.63633 2.70943 10.3472C2.79959 10.6147 2.84468 10.7484 2.85281 10.8512C2.86084 10.9527 2.85477 11.0238 2.82966 11.1225C2.80424 11.2224 2.74812 11.3262 2.63586 11.534L1.27282 14.057C1.07839 14.4168 0.981178 14.5968 1.00293 14.7356C1.02189 14.8566 1.09308 14.9631 1.1976 15.0269C1.3176 15.1001 1.52104 15.079 1.9279 15.037L6.19542 14.5958C6.32466 14.5825 6.38927 14.5758 6.44817 14.5781C6.5061 14.5803 6.54699 14.5857 6.60348 14.5987C6.66091 14.612 6.73314 14.6398 6.87758 14.6954C7.66763 14.9998 8.52597 15.1667 9.42329 15.1667Z" stroke="var(--stroke-0, #333435)" stroke-width="2" stroke-linecap="round" stroke-linejoin="round"/>
</svg>
