<svg preserveAspectRatio="none" width="100%" height="100%" overflow="visible" style="display: block;" viewBox="0 0 17 17" fill="none" xmlns="http://www.w3.org/2000/svg">
<g id="Icon">
<path d="M5.50001 1.00001H2.33334C1.86663 1.00001 1.63327 1.00001 1.45501 1.09083C1.29821 1.17073 1.17073 1.29821 1.09083 1.45501C1.00001 1.63327 1.00001 1.86663 1.00001 2.33334V5.50001C1.00001 5.96672 1.00001 6.20007 1.09083 6.37833C1.17073 6.53513 1.29821 6.66262 1.45501 6.74251C1.63327 6.83334 1.86663 6.83334 2.33334 6.83334H5.50001C5.96672 6.83334 6.20007 6.83334 6.37833 6.74251C6.53513 6.66262 6.66262 6.53513 6.74251 6.37833C6.83334 6.20007 6.83334 5.96672 6.83334 5.50001V2.33334C6.83334 1.86663 6.83334 1.63327 6.74251 1.45501C6.66262 1.29821 6.53513 1.17073 6.37833 1.09083C6.20007 1.00001 5.96672 1.00001 5.50001 1.00001Z" stroke="var(--stroke-0, #333435)" stroke-width="2" stroke-linecap="round" stroke-linejoin="round"/>
<path d="M14.6667 1.00001H11.5C11.0333 1.00001 10.7999 1.00001 10.6217 1.09083C10.4649 1.17073 10.3374 1.29821 10.2575 1.45501C10.1667 1.63327 10.1667 1.86663 10.1667 2.33334V5.50001C10.1667 5.96672 10.1667 6.20007 10.2575 6.37833C10.3374 6.53513 10.4649 6.66262 10.6217 6.74251C10.7999 6.83334 11.0333 6.83334 11.5 6.83334H14.6667C15.1334 6.83334 15.3667 6.83334 15.545 6.74251C15.7018 6.66262 15.8293 6.53513 15.9092 6.37833C16 6.20007 16 5.96672 16 5.50001V2.33334C16 1.86663 16 1.63327 15.9092 1.45501C15.8293 1.29821 15.7018 1.17073 15.545 1.09083C15.3667 1.00001 15.1334 1.00001 14.6667 1.00001Z" stroke="var(--stroke-0, #333435)" stroke-width="2" stroke-linecap="round" stroke-linejoin="round"/>
<path d="M14.6667 10.1667H11.5C11.0333 10.1667 10.7999 10.1667 10.6217 10.2575C10.4649 10.3374 10.3374 10.4649 10.2575 10.6217C10.1667 10.7999 10.1667 11.0333 10.1667 11.5V14.6667C10.1667 15.1334 10.1667 15.3667 10.2575 15.545C10.3374 15.7018 10.4649 15.8293 10.6217 15.9092C10.7999 16 11.0333 16 11.5 16H14.6667C15.1334 16 15.3667 16 15.545 15.9092C15.7018 15.8293 15.8293 15.7018 15.9092 15.545C16 15.3667 16 15.1334 16 14.6667V11.5C16 11.0333 16 10.7999 15.9092 10.6217C15.8293 10.4649 15.7018 10.3374 15.545 10.2575C15.3667 10.1667 15.1334 10.1667 14.6667 10.1667Z" stroke="var(--stroke-0, #333435)" stroke-width="2" stroke-linecap="round" stroke-linejoin="round"/>
<path d="M5.50001 10.1667H2.33334C1.86663 10.1667 1.63327 10.1667 1.45501 10.2575C1.29821 10.3374 1.17073 10.4649 1.09083 10.6217C1.00001 10.7999 1.00001 11.0333 1.00001 11.5V14.6667C1.00001 15.1334 1.00001 15.3667 1.09083 15.545C1.17073 15.7018 1.29821 15.8293 1.45501 15.9092C1.63327 16 1.86663 16 2.33334 16H5.50001C5.96672 16 6.20007 16 6.37833 15.9092C6.53513 15.8293 6.66262 15.7018 6.74251 15.545C6.83334 15.3667 6.83334 15.1334 6.83334 14.6667V11.5C6.83334 11.0333 6.83334 10.7999 6.74251 10.6217C6.66262 10.4649 6.53513 10.3374 6.37833 10.2575C6.20007 10.1667 5.96672 10.1667 5.50001 10.1667Z" stroke="var(--stroke-0, #333435)" stroke-width="2" stroke-linecap="round" stroke-linejoin="round"/>
</g>
</svg>
