<svg preserveAspectRatio="none" width="100%" height="100%" overflow="visible" style="display: block;" viewBox="0 0 18.6667 17.9296" fill="none" xmlns="http://www.w3.org/2000/svg">
<path id="Icon" d="M2.66667 10.2629L3.97887 15.5117C4.01578 15.6593 4.03423 15.7331 4.05606 15.7975C4.26931 16.4271 4.83627 16.8698 5.49877 16.924C5.56659 16.9295 5.64267 16.9295 5.79483 16.9295C5.98537 16.9295 6.08064 16.9295 6.1609 16.9217C6.95416 16.8448 7.58195 16.217 7.65888 15.4238C7.66667 15.3435 7.66667 15.2482 7.66667 15.0577V3.17953M14.75 9.8462C16.3608 9.8462 17.6667 8.54036 17.6667 6.92953C17.6667 5.3187 16.3608 4.01286 14.75 4.01286M7.875 3.17953H4.75C2.67893 3.17953 0.999999 4.85846 1 6.92953C1 9.0006 2.67893 10.6795 4.75 10.6795H7.875C9.34702 10.6795 11.1477 11.4686 12.5369 12.2259C13.3474 12.6677 13.7526 12.8886 14.018 12.8561C14.2641 12.8259 14.4502 12.7154 14.5944 12.5138C14.75 12.2963 14.75 11.8612 14.75 10.991V2.8681C14.75 1.99786 14.75 1.56274 14.5944 1.34527C14.4502 1.14361 14.2641 1.03311 14.018 1.00297C13.7526 0.970464 13.3474 1.19136 12.5369 1.63316C11.1477 2.39046 9.34702 3.17953 7.875 3.17953Z" stroke="var(--stroke-0, #333435)" stroke-width="2" stroke-linecap="round" stroke-linejoin="round"/>
</svg>
