<svg preserveAspectRatio="none" width="100%" height="100%" overflow="visible" style="display: block;" viewBox="0 0 13.831 17.2179" fill="none" xmlns="http://www.w3.org/2000/svg">
<path id="Icon" d="M1.00001 2.76697C1.00001 1.95766 1.00001 1.55301 1.16875 1.32995C1.31575 1.13563 1.54044 1.01538 1.78367 1.00086C2.06287 0.984185 2.39956 1.20865 3.07294 1.65757L11.8359 7.49954C12.3923 7.87048 12.6705 8.05595 12.7675 8.28972C12.8522 8.4941 12.8522 8.72379 12.7675 8.92817C12.6705 9.16194 12.3923 9.34741 11.8359 9.71834L3.07294 15.5603C2.39956 16.0092 2.06287 16.2337 1.78367 16.217C1.54044 16.2025 1.31575 16.0823 1.16875 15.8879C1.00001 15.6649 1.00001 15.2602 1.00001 14.4509V2.76697Z" stroke="var(--stroke-0, #333435)" stroke-width="2" stroke-linecap="round" stroke-linejoin="round"/>
</svg>
