<svg preserveAspectRatio="none" width="100%" height="100%" overflow="visible" style="display: block;" viewBox="0 0 15.3333 18.6667" fill="none" xmlns="http://www.w3.org/2000/svg">
<path id="Icon" d="M9.33333 8.5H4.33333M6 11.8333H4.33333M11 5.16667H4.33333M14.3333 5V13.6667C14.3333 15.0668 14.3333 15.7669 14.0609 16.3016C13.8212 16.772 13.4387 17.1545 12.9683 17.3942C12.4335 17.6667 11.7335 17.6667 10.3333 17.6667H5C3.59987 17.6667 2.8998 17.6667 2.36502 17.3942C1.89462 17.1545 1.51217 16.772 1.27248 16.3016C1 15.7669 1 15.0668 1 13.6667V5C1 3.59987 1 2.8998 1.27248 2.36502C1.51217 1.89462 1.89462 1.51217 2.36502 1.27248C2.8998 1 3.59987 1 5 1H10.3333C11.7335 1 12.4335 1 12.9683 1.27248C13.4387 1.51217 13.8212 1.89462 14.0609 2.36502C14.3333 2.8998 14.3333 3.59987 14.3333 5Z" stroke="var(--stroke-0, #333435)" stroke-width="2" stroke-linecap="round" stroke-linejoin="round"/>
</svg>
