<svg preserveAspectRatio="none" width="100%" height="100%" overflow="visible" style="display: block;" viewBox="0 0 17.0005 15.5002" fill="none" xmlns="http://www.w3.org/2000/svg">
<path id="Icon" d="M9.185 11.5H14.5654M9.185 11.5L7.75022 14.5M9.185 11.5L11.3339 7.00677C11.5071 6.6447 11.5937 6.46367 11.7122 6.40646C11.8152 6.35671 11.9353 6.35671 12.0383 6.40646C12.1568 6.46367 12.2433 6.6447 12.4165 7.00677L14.5654 11.5M14.5654 11.5L16.0002 14.5M1.00022 2.5H5.50022M5.50022 2.5H8.12522M5.50022 2.5V1M8.12522 2.5H10.0002M8.12522 2.5C7.75312 4.71796 6.88966 6.72714 5.62438 8.41332M7.00022 9.25C6.54083 9.04361 6.07221 8.75656 5.62438 8.41332M5.62438 8.41332C4.60999 7.63582 3.70229 6.56998 3.25022 5.5M5.62438 8.41332C4.42087 10.0172 2.8538 11.3289 1.00022 12.25" stroke="var(--stroke-0, #333435)" stroke-width="2" stroke-linecap="round" stroke-linejoin="round"/>
</svg>
