<svg preserveAspectRatio="none" width="100%" height="100%" overflow="visible" style="display: block;" viewBox="0 0 7.5 7" fill="none" xmlns="http://www.w3.org/2000/svg">
<g id="linked_in">
<path d="M1.80928 0.846074C1.80928 1.31335 1.40426 1.69215 0.904639 1.69215C0.405021 1.69215 0 1.31335 0 0.846074C0 0.3788 0.405021 0 0.904639 0C1.40426 0 1.80928 0.3788 1.80928 0.846074Z" fill="var(--fill-0, white)"/>
<path d="M0.123711 2.31405H1.6701V7H0.123711V2.31405Z" fill="var(--fill-0, white)"/>
<path d="M4.15979 2.31405H2.6134V7H4.15979C4.15979 7 4.15979 5.52479 4.15979 4.60243C4.15979 4.04881 4.34883 3.49277 5.10309 3.49277C5.95551 3.49277 5.95038 4.21727 5.9464 4.77855C5.9412 5.51222 5.95361 6.26093 5.95361 7H7.5V4.52686C7.4869 2.94769 7.07541 2.22004 5.72165 2.22004C4.9177 2.22004 4.41936 2.58503 4.15979 2.91525V2.31405Z" fill="var(--fill-0, white)"/>
</g>
</svg>
