<svg preserveAspectRatio="none" width="100%" height="100%" overflow="visible" style="display: block;" viewBox="0 0 15.3335 12.6667" fill="none" xmlns="http://www.w3.org/2000/svg">
<path id="Icon" d="M1.00009 3L6.44336 6.8103C6.88415 7.11884 7.10454 7.27312 7.34426 7.33287C7.55602 7.38566 7.77749 7.38566 7.98924 7.33287C8.22897 7.27312 8.44936 7.11884 8.89014 6.8103L14.3334 3M4.20009 11.6667H11.1334C12.2535 11.6667 12.8136 11.6667 13.2414 11.4487C13.6177 11.2569 13.9237 10.951 14.1154 10.5746C14.3334 10.1468 14.3334 9.58677 14.3334 8.46667V4.2C14.3334 3.0799 14.3334 2.51984 14.1154 2.09202C13.9237 1.7157 13.6177 1.40974 13.2414 1.21799C12.8136 1 12.2535 1 11.1334 1H4.20009C3.07998 1 2.51993 1 2.0921 1.21799C1.71578 1.40974 1.40982 1.7157 1.21807 2.09202C1.00009 2.51984 1.00009 3.0799 1.00009 4.2V8.46667C1.00009 9.58677 1.00009 10.1468 1.21807 10.5746C1.40982 10.951 1.71578 11.2569 2.0921 11.4487C2.51993 11.6667 3.07998 11.6667 4.20009 11.6667Z" stroke="var(--stroke-0, #9D9FA1)" stroke-width="2" stroke-linecap="round" stroke-linejoin="round"/>
</svg>
