<svg preserveAspectRatio="none" width="100%" height="100%" overflow="visible" style="display: block;" viewBox="0 0 100.25 100.25" fill="none" xmlns="http://www.w3.org/2000/svg">
<path id="Icon" d="M26.3125 50.125H26.3654M50.125 50.125H50.1779M73.9375 50.125H73.9904M50.125 97.75C76.4276 97.75 97.75 76.4276 97.75 50.125C97.75 23.8224 76.4276 2.5 50.125 2.5C23.8224 2.5 2.5 23.8224 2.5 50.125C2.5 56.4599 3.73685 62.5059 5.98225 68.0347C6.41199 69.0929 6.62686 69.6219 6.72272 70.0496C6.8165 70.468 6.85079 70.7776 6.85084 71.2063C6.8509 71.6446 6.77133 72.122 6.6122 73.0768L3.47434 91.904C3.14574 93.8755 2.98145 94.8613 3.28719 95.5741C3.55479 96.198 4.05196 96.6952 4.67585 96.9628C5.38868 97.2686 6.37447 97.1043 8.34603 96.7757L27.1732 93.6378C28.128 93.4787 28.6054 93.3991 29.0437 93.3992C29.4724 93.3992 29.782 93.4335 30.2004 93.5273C30.6281 93.6231 31.1571 93.838 32.2153 94.2678C37.7441 96.5131 43.7901 97.75 50.125 97.75ZM28.9583 50.125C28.9583 51.5863 27.7738 52.7708 26.3125 52.7708C24.8512 52.7708 23.6667 51.5863 23.6667 50.125C23.6667 48.6637 24.8512 47.4792 26.3125 47.4792C27.7738 47.4792 28.9583 48.6637 28.9583 50.125ZM52.7708 50.125C52.7708 51.5863 51.5863 52.7708 50.125 52.7708C48.6637 52.7708 47.4792 51.5863 47.4792 50.125C47.4792 48.6637 48.6637 47.4792 50.125 47.4792C51.5863 47.4792 52.7708 48.6637 52.7708 50.125ZM76.5833 50.125C76.5833 51.5863 75.3988 52.7708 73.9375 52.7708C72.4762 52.7708 71.2917 51.5863 71.2917 50.125C71.2917 48.6637 72.4762 47.4792 73.9375 47.4792C75.3988 47.4792 76.5833 48.6637 76.5833 50.125Z" stroke="var(--stroke-0, #727477)" stroke-width="5" stroke-linecap="round" stroke-linejoin="round"/>
</svg>
