<svg preserveAspectRatio="none" width="100%" height="100%" overflow="visible" style="display: block;" viewBox="0 0 24 24" fill="none" xmlns="http://www.w3.org/2000/svg">
<g id="Layer_13" clip-path="url(#clip0_4750_90197)">
<path id="Vector" d="M11.9996 0C5.38291 0 0 5.38291 0 11.9996C0 14.5564 0.794237 16.984 2.30015 19.0485L1.33962 23.9996L6.01473 22.3887C7.83927 23.4438 9.89948 23.9996 11.9996 23.9996C18.6167 23.9996 23.9996 18.6163 23.9996 11.9996C23.9996 5.38291 18.6171 0 11.9996 0ZM11.9996 22.2146C10.0917 22.2146 8.22146 21.6747 6.5919 20.6529L6.23025 20.4265L3.68047 21.3049L4.2057 18.5997L3.95491 18.2787C2.53582 16.4627 1.78539 14.2912 1.78539 12C1.78539 6.36785 6.36747 1.78577 11.9996 1.78577C17.6318 1.78577 22.2146 6.36785 22.2146 12C22.2146 17.6321 17.6325 22.2146 11.9996 22.2146Z" fill="var(--fill-0, #333435)"/>
<path id="Vector_2" d="M18.1781 14.7178C18.1781 14.7178 16.121 13.6922 15.6466 13.4755C15.171 13.2588 14.8853 13.6278 14.8853 13.6278C14.8853 13.6278 13.9938 14.7415 13.8302 14.9054C13.6658 15.0694 13.4077 15.0345 13.4077 15.0345C13.4077 15.0345 11.6041 14.3643 10.6653 13.4243C9.7245 12.4847 9.27021 11.7521 8.97717 11.354C8.68412 10.9552 8.97717 10.5803 8.97717 10.5803C8.97717 10.5803 9.50472 10.0528 9.73923 9.68959C9.97374 9.326 9.82063 8.95117 9.82063 8.95117C9.82063 8.95117 8.93026 6.77041 8.73064 6.39558C8.53179 6.02036 7.79259 6.02036 7.21852 6.09091C6.64484 6.16107 5.94015 7.39177 5.94015 7.39177C5.50717 8.02902 5.46027 8.72829 5.81184 10.2757C6.16303 11.8223 7.6515 13.5224 9.32758 15.1989C11.0037 16.8749 14.1492 17.9498 15.4702 17.9498C16.7912 17.9498 17.6704 17.023 17.9712 16.7222C18.272 16.4218 18.4189 15.5326 18.4189 15.1694C18.4189 14.8062 18.1781 14.7182 18.1781 14.7182V14.7178Z" fill="var(--fill-0, #333435)"/>
</g>
<defs>
<clipPath id="clip0_4750_90197">
<rect width="24" height="24" fill="white"/>
</clipPath>
</defs>
</svg>
