<svg preserveAspectRatio="none" width="100%" height="100%" overflow="visible" style="display: block;" viewBox="0 0 14.6354 13.4399" fill="none" xmlns="http://www.w3.org/2000/svg">
<path id="phone" d="M3.71877 0.610727C3.38591 -0.0578504 2.87528 0.00133936 2.35943 0.00133936C1.43751 0.00133936 -2.73582e-09 1.10562 0 3.16079C2.84973e-09 4.84512 0.742199 6.68887 3.24317 9.44696C5.65679 12.1087 8.82814 13.4857 11.4609 13.4388C14.0938 13.3919 14.6354 11.1263 14.6354 10.3612C14.6354 10.022 14.425 9.85283 14.28 9.80686C13.3828 9.37628 11.7281 8.57398 11.3516 8.42324C10.9751 8.2725 10.7785 8.47639 10.6563 8.58731C10.3148 8.91269 9.638 9.87162 9.40626 10.0873C9.17452 10.303 8.82903 10.1938 8.68525 10.1123C8.15618 9.89999 6.72168 9.26191 5.57822 8.15346C4.16407 6.78262 4.08108 6.31098 3.81465 5.89115C3.60151 5.55529 3.75792 5.34922 3.83596 5.25917C4.14065 4.9076 4.56135 4.36483 4.75002 4.0951C4.93869 3.82538 4.78891 3.41586 4.69904 3.1608C4.31252 2.06385 3.98506 1.14559 3.71877 0.610727Z" fill="var(--fill-0, white)"/>
</svg>
