<svg preserveAspectRatio="none" width="100%" height="100%" overflow="visible" style="display: block;" viewBox="0 0 28 28" fill="none" xmlns="http://www.w3.org/2000/svg">
<path id="border" fill-rule="evenodd" clip-rule="evenodd" d="M14 28C21.732 28 28 21.732 28 14C28 6.26801 21.732 0 14 0C6.26801 0 0 6.26801 0 14C0 16.5109 0.660997 18.8674 1.81847 20.905L0 28L7.31486 26.3038C9.30138 27.3854 11.5789 28 14 28ZM14 25.8462C20.5425 25.8462 25.8462 20.5425 25.8462 14C25.8462 7.45755 20.5425 2.15385 14 2.15385C7.45755 2.15385 2.15385 7.45755 2.15385 14C2.15385 16.5261 2.9445 18.8675 4.29184 20.7902L3.23077 24.7692L7.27993 23.7569C9.18936 25.0746 11.5046 25.8462 14 25.8462Z" fill="var(--fill-0, #BFC8D0)"/>
</svg>
