<svg width="88" height="40" viewBox="0 0 88 40" fill="none" xmlns="http://www.w3.org/2000/svg">
<g clip-path="url(#clip0_2866_3411)">
<path d="M15.7733 19.4986C15.7555 19.4719 15.74 19.4563 15.6466 19.4563H15.5555C15.5132 19.4652 15.4799 19.4652 15.4377 19.4652C15.3776 19.4652 15.3287 19.4563 15.2865 19.4474H15.2687L15.2532 19.4385C15.2109 19.423 15.1687 19.4141 15.1265 19.4141C14.9931 19.4141 14.8509 19.4897 14.7153 19.5653C14.6819 19.5809 14.6575 19.5987 14.6241 19.6165C14.4397 19.7077 14.4219 19.8078 14.4219 19.8078H16.0911C15.9756 19.7255 15.8733 19.6232 15.7733 19.4986ZM14.6486 19.6655C14.6664 19.6566 14.6819 19.6477 14.6975 19.6388C14.7108 19.6299 14.7242 19.6232 14.7397 19.6143C14.8775 19.5386 15.0087 19.4697 15.1265 19.4697C15.162 19.4697 15.1976 19.4764 15.2332 19.4897L15.2443 19.4964L15.2576 19.5031H15.2865C15.3199 19.5097 15.3732 19.5208 15.4377 19.5208C15.4799 19.5208 15.5177 19.5208 15.5666 19.5097H15.6466C15.7155 19.5097 15.7199 19.5208 15.7266 19.5297C15.7977 19.6165 15.8644 19.6899 15.9356 19.7522H14.5219C14.5463 19.7277 14.5864 19.6966 14.6486 19.6655ZM15.7733 19.4986C15.7555 19.4719 15.74 19.4563 15.6466 19.4563H15.5555C15.5132 19.4652 15.4799 19.4652 15.4377 19.4652C15.3776 19.4652 15.3287 19.4563 15.2865 19.4474H15.2687L15.2532 19.4385C15.2109 19.423 15.1687 19.4141 15.1265 19.4141C14.9931 19.4141 14.8509 19.4897 14.7153 19.5653C14.6819 19.5809 14.6575 19.5987 14.6241 19.6165C14.4397 19.7077 14.4219 19.8078 14.4219 19.8078H16.0911C15.9756 19.7255 15.8733 19.6232 15.7733 19.4986ZM14.6486 19.6655C14.6664 19.6566 14.6819 19.6477 14.6975 19.6388C14.7108 19.6299 14.7242 19.6232 14.7397 19.6143C14.8775 19.5386 15.0087 19.4697 15.1265 19.4697C15.162 19.4697 15.1976 19.4764 15.2332 19.4897L15.2443 19.4964L15.2576 19.5031H15.2865C15.3199 19.5097 15.3732 19.5208 15.4377 19.5208C15.4799 19.5208 15.5177 19.5208 15.5666 19.5097H15.6466C15.7155 19.5097 15.7199 19.5208 15.7266 19.5297C15.7977 19.6165 15.8644 19.6899 15.9356 19.7522H14.5219C14.5463 19.7277 14.5864 19.6966 14.6486 19.6655ZM15.7733 19.4986C15.7555 19.4719 15.74 19.4563 15.6466 19.4563H15.5555C15.5132 19.4652 15.4799 19.4652 15.4377 19.4652C15.3776 19.4652 15.3287 19.4563 15.2865 19.4474H15.2687L15.2532 19.4385C15.2109 19.423 15.1687 19.4141 15.1265 19.4141C14.9931 19.4141 14.8509 19.4897 14.7153 19.5653C14.6819 19.5809 14.6575 19.5987 14.6241 19.6165C14.4397 19.7077 14.4219 19.8078 14.4219 19.8078H16.0911C15.9756 19.7255 15.8733 19.6232 15.7733 19.4986ZM14.6486 19.6655C14.6664 19.6566 14.6819 19.6477 14.6975 19.6388C14.7108 19.6299 14.7242 19.6232 14.7397 19.6143C14.8775 19.5386 15.0087 19.4697 15.1265 19.4697C15.162 19.4697 15.1976 19.4764 15.2332 19.4897L15.2443 19.4964L15.2576 19.5031H15.2865C15.3199 19.5097 15.3732 19.5208 15.4377 19.5208C15.4799 19.5208 15.5177 19.5208 15.5666 19.5097H15.6466C15.7155 19.5097 15.7199 19.5208 15.7266 19.5297C15.7977 19.6165 15.8644 19.6899 15.9356 19.7522H14.5219C14.5463 19.7277 14.5864 19.6966 14.6486 19.6655Z" fill="black"/>
<path d="M37.7664 27.515C36.7972 29.8087 35.4036 31.8732 33.6276 33.6529C31.8539 35.426 29.7912 36.8187 27.4974 37.7931C25.1124 38.7987 22.5851 39.3103 19.9912 39.3103C17.3973 39.3103 14.8589 38.7987 12.4851 37.7931C10.1956 36.8231 8.13074 35.4305 6.35033 33.6529C4.57437 31.8732 3.18295 29.8087 2.21606 27.5172C1.20916 25.1324 0.697936 22.6051 0.697936 20.0044C0.697936 17.4038 1.20916 14.8676 2.21606 12.4917C3.18517 10.1958 4.5766 8.13348 6.35255 6.35818C8.13074 4.57842 10.1934 3.18576 12.4828 2.21802C14.8656 1.21023 17.3928 0.700779 19.9912 0.700779C22.5896 0.700779 25.1213 1.21023 27.4974 2.21802C29.7912 3.19021 31.8539 4.58287 33.6276 6.35818C35.4036 8.13348 36.795 10.198 37.7664 12.4917C38.6821 14.663 39.1867 16.9544 39.2689 19.3081H39.9491C39.9135 18.1935 39.7846 17.0879 39.569 16.0133C39.3089 14.7052 38.9155 13.426 38.4021 12.2113C37.3996 9.83982 35.9593 7.70189 34.1211 5.85539C32.2896 4.02225 30.1535 2.58065 27.7685 1.57286C25.2946 0.529477 22.674 0 19.9823 0C17.2906 0 14.6744 0.529477 12.2028 1.57286C9.8289 2.5762 7.69508 4.0178 5.85911 5.85539C4.01869 7.69522 2.57392 9.83315 1.56925 12.2113C0.526786 14.6852 0 17.3037 0 19.9956C0 22.6874 0.526786 25.3148 1.56925 27.7909C2.5717 30.1602 4.01202 32.2981 5.85022 34.1468C7.67952 35.9778 9.81779 37.4194 12.2028 38.4294C14.6744 39.4705 17.2906 40 19.9823 40C22.674 40 25.288 39.4705 27.7596 38.4294C30.1291 37.426 32.2651 35.9844 34.11 34.1468C35.9526 32.3048 37.3929 30.1646 38.3932 27.7887C39.3467 25.5217 39.8713 23.1324 39.9491 20.6763H39.2689C39.1911 23.0412 38.6843 25.337 37.7664 27.515Z" fill="black"/>
<path d="M87.169 19.1528C86.9889 19.1528 86.82 19.2106 86.6844 19.3107C86.5355 19.4175 86.4221 19.5732 86.3666 19.7557H37.231C37.1754 19.5755 37.062 19.4175 36.9065 19.3107C36.8353 19.2596 36.7553 19.2217 36.6686 19.195C36.6442 18.6166 36.5819 18.0115 36.473 17.2974C36.7953 17.1239 36.9642 16.759 36.8864 16.3964C36.8109 16.0404 36.5019 15.769 36.1463 15.7423C35.9774 15.1038 35.7795 14.4943 35.555 13.9225C35.8307 13.6911 35.9196 13.2929 35.7662 12.9592C35.6351 12.6633 35.3328 12.4653 35.0105 12.4653C34.9793 12.4653 34.9438 12.4653 34.9082 12.4676C34.6393 11.9314 34.3259 11.3908 33.9547 10.8191C34.1792 10.5254 34.1858 10.1227 33.9636 9.82463C33.808 9.60884 33.5635 9.48425 33.2901 9.48425C33.1901 9.48425 33.0967 9.49983 33.0145 9.53097C32.6188 9.04376 32.2187 8.59883 31.7942 8.17168L31.7386 8.11607C31.8986 7.78459 31.8231 7.38637 31.5475 7.1372C31.3919 6.99927 31.194 6.92141 30.9918 6.92141C30.8317 6.92141 30.6784 6.96367 30.5561 7.04154C30.0471 6.62552 29.5292 6.24732 29.0158 5.92029C29.1025 5.56657 28.9469 5.19727 28.6268 5.00594C28.489 4.93253 28.3556 4.89693 28.2134 4.89693C28 4.89693 27.7977 4.97702 27.6399 5.12163C27.0776 4.83242 26.4908 4.57213 25.8951 4.34521C25.904 3.97591 25.6706 3.64888 25.3172 3.53987C25.2127 3.50872 25.1371 3.49538 25.066 3.49538C24.7904 3.49538 24.5392 3.62886 24.3858 3.85578C23.7946 3.69337 23.1678 3.56212 22.521 3.45978C22.4498 3.09938 22.1542 2.82352 21.7897 2.78125H21.7008C21.3629 2.78125 21.0606 2.98815 20.9317 3.2996C20.6228 3.28403 20.3027 3.26846 19.9804 3.26846C19.6181 3.26846 19.3136 3.27736 19.0268 3.2996C18.8957 2.9926 18.5867 2.78125 18.26 2.78125H18.1755C17.8021 2.82352 17.5087 3.10161 17.4398 3.45978C16.7908 3.56212 16.164 3.69337 15.5727 3.85578C15.4149 3.63331 15.1593 3.49538 14.8926 3.49538C14.817 3.49538 14.7281 3.51095 14.6414 3.53987C14.2969 3.64888 14.0635 3.97591 14.0657 4.34521C13.47 4.57213 12.8832 4.83242 12.3186 5.12163C12.1608 4.97702 11.9586 4.89693 11.7452 4.89693C11.6051 4.89693 11.4696 4.93253 11.334 5.00594C11.0117 5.19282 10.8561 5.56212 10.9428 5.92029C10.4293 6.24955 9.91143 6.62552 9.4002 7.04376C9.27128 6.96367 9.12236 6.92141 8.96899 6.92141C8.7645 6.92141 8.56668 6.99927 8.41109 7.1372C8.14214 7.40639 8.07323 7.79571 8.22882 8.12496C8.20882 8.14276 8.18659 8.16279 8.16881 8.18726C7.74649 8.60772 7.34863 9.05266 6.95298 9.53765C6.87074 9.5065 6.77738 9.49093 6.67736 9.49093C6.40841 9.49093 6.15724 9.61996 6.00165 9.83353C5.7816 10.1294 5.78827 10.5321 6.01277 10.8257C5.67047 11.3441 5.35039 11.898 5.05922 12.4765C5.02365 12.472 4.98809 12.472 4.95697 12.472C4.62578 12.472 4.33016 12.6678 4.20124 12.9681C4.0501 13.2952 4.13901 13.6934 4.4124 13.9314C4.18791 14.5009 3.99008 15.1127 3.82116 15.7512C3.46108 15.7779 3.15878 16.0404 3.08099 16.4053C3.00542 16.759 3.17879 17.1305 3.49442 17.3041C3.38995 17.9247 3.32549 18.5632 3.29882 19.2039C2.9454 19.3085 2.70312 19.6311 2.70312 20.0026C2.70312 20.3741 2.9454 20.6967 3.29882 20.8013C3.32327 21.3819 3.3855 21.987 3.49442 22.7012C3.17212 22.8725 3.00319 23.2373 3.08099 23.5999C3.15656 23.9581 3.46552 24.2273 3.82116 24.2562C3.99008 24.8858 4.18791 25.4976 4.4124 26.0738C4.13678 26.3074 4.04787 26.7056 4.20124 27.0393C4.33238 27.333 4.63468 27.5332 4.95697 27.5332C4.98809 27.5332 5.02365 27.5332 5.05922 27.5287C5.3415 28.0916 5.66158 28.6478 6.01277 29.1795C5.78827 29.4731 5.7816 29.8758 6.00388 30.1717C6.15947 30.3897 6.40397 30.5143 6.67736 30.5143C6.77738 30.5143 6.87074 30.4987 6.95298 30.4676C7.34863 30.9548 7.74649 31.3975 8.17326 31.8246L8.22882 31.8802C8.06879 32.2139 8.14436 32.6122 8.41998 32.8591C8.57557 32.9993 8.77339 33.0749 8.97566 33.0749C9.1357 33.0749 9.28907 33.0326 9.40909 32.9548C9.92032 33.3708 10.4382 33.749 10.9517 34.0782C10.865 34.4297 11.0206 34.8013 11.3406 34.9904C11.4785 35.0638 11.6118 35.0994 11.7541 35.0994C11.9675 35.0994 12.1697 35.0215 12.3275 34.8769C12.8899 35.1661 13.4767 35.4264 14.0724 35.6533C14.0635 36.0204 14.2969 36.3474 14.6503 36.4587C14.7548 36.4898 14.8303 36.5032 14.9015 36.5032C15.1748 36.5032 15.426 36.3719 15.5816 36.1494C16.1706 36.3118 16.7997 36.4453 17.4465 36.5454C17.5176 36.9058 17.8132 37.1817 18.1778 37.224H18.2667C18.6045 37.224 18.9068 37.0171 19.0357 36.7056C19.3491 36.7212 19.667 36.7368 19.9871 36.7368C20.3494 36.7368 20.6539 36.7279 20.9406 36.7078C21.0717 37.0126 21.3807 37.224 21.7074 37.224H21.7919C22.1653 37.1817 22.4587 36.9058 22.5276 36.5454C23.1767 36.4453 23.8057 36.3118 24.3947 36.1494C24.5481 36.3675 24.8059 36.5032 25.0749 36.5032C25.1504 36.5032 25.2394 36.4854 25.326 36.4564C25.6706 36.3474 25.904 36.0204 25.9017 35.6533C26.4974 35.4264 27.0842 35.1661 27.6488 34.8769C27.8066 35.0215 28.0089 35.0994 28.2223 35.0994C28.3623 35.0994 28.4979 35.0638 28.6335 34.9926C28.9558 34.8057 29.1113 34.4342 29.0247 34.0782C29.5381 33.749 30.056 33.3708 30.5672 32.9548C30.6961 33.0349 30.8451 33.0749 30.9984 33.0749C31.2029 33.0749 31.4008 32.9993 31.5564 32.8591C31.832 32.6122 31.9053 32.2139 31.7475 31.8802L31.8031 31.8246C32.2232 31.4042 32.6321 30.9481 33.0211 30.4676C33.1056 30.4987 33.1989 30.5143 33.299 30.5143C33.5679 30.5143 33.8191 30.3875 33.9725 30.1717C34.1925 29.8758 34.1881 29.4731 33.9636 29.1795C34.3059 28.6633 34.6259 28.1072 34.9171 27.5287C34.9527 27.5332 34.9882 27.5332 35.0194 27.5332C35.3505 27.5332 35.6462 27.3374 35.7751 27.0371C35.9262 26.7034 35.8395 26.3118 35.5639 26.0738C35.7884 25.5043 35.9862 24.8925 36.153 24.2562C36.5153 24.2273 36.8175 23.9648 36.8953 23.5999C36.9709 23.2462 36.7975 22.8769 36.4819 22.7012C36.5864 22.0805 36.6508 21.4398 36.6753 20.8013C36.762 20.7724 36.8442 20.7301 36.9153 20.6789C37.0643 20.5677 37.1754 20.412 37.2287 20.234H86.3644C86.4155 20.4186 86.5288 20.5744 86.68 20.6789C86.8178 20.7768 86.9867 20.8346 87.169 20.8346C87.6269 20.8346 88.0025 20.4698 88.0025 20.0004C88.0025 19.531 87.6269 19.1528 87.169 19.1528ZM35.0105 14.1383C35.0883 14.1383 35.1549 14.1294 35.2127 14.1116C35.4261 14.6678 35.6084 15.2373 35.7573 15.8024C35.4683 15.9181 35.2683 16.1917 35.2439 16.5054L30.5872 17.4998C30.5228 17.4687 30.4494 17.4531 30.3539 17.4531H30.2605C30.1783 17.4531 30.096 17.4464 30.0071 17.4398H29.9804C29.8715 17.4264 29.7648 17.4197 29.6559 17.4197C29.4781 17.4197 29.2136 17.442 28.9491 17.62C28.8113 17.4932 28.6312 17.4286 28.4134 17.4286C28.3756 17.4286 28.3356 17.4286 28.2934 17.4331C28.3245 17.0816 28.1489 16.8658 27.96 16.7145L34.3748 13.8558C34.5459 14.036 34.7749 14.1383 35.0105 14.1383ZM33.2901 11.1572C33.4168 11.1572 33.5368 11.1283 33.6502 11.0727C33.9613 11.5443 34.2547 12.0515 34.5437 12.6166C34.2836 12.7924 34.1436 13.0949 34.1792 13.4108L27.5354 16.3675C27.5354 16.3675 27.5177 16.3519 27.5088 16.3474C27.4754 16.3141 27.4443 16.2851 27.4132 16.2562C27.3798 16.2229 27.3443 16.1917 27.3109 16.1583C27.1531 16.0182 27.0464 15.8358 26.9353 15.6422C26.8864 15.5532 26.8308 15.4598 26.7686 15.3641L32.7789 10.9926C32.9367 11.0972 33.1211 11.1572 33.2901 11.1572ZM30.6339 8.51429C30.7539 8.5699 30.8673 8.59438 30.9829 8.59438C31.1629 8.59438 31.3385 8.53431 31.4897 8.42085C31.503 8.43197 31.5163 8.44087 31.5297 8.45199C31.9631 8.88581 32.3432 9.31073 32.6877 9.74454C32.4721 9.96256 32.3988 10.294 32.501 10.5944L26.4663 14.9815C26.1862 14.6678 25.9951 14.3007 25.795 13.9136C25.7928 13.9114 25.7906 13.9069 25.7884 13.9025L30.6339 8.51429ZM28.0133 6.55433C28.0644 6.56323 28.1156 6.57435 28.1667 6.57435C28.1822 6.57435 28.1956 6.57213 28.2111 6.5699H28.2134C28.4579 6.5699 28.6913 6.45867 28.8402 6.2718C29.3203 6.5788 29.8026 6.93253 30.2805 7.32408C30.1205 7.59104 30.1182 7.92697 30.2738 8.18948L25.5461 13.4487C25.4772 13.3285 25.4038 13.2106 25.3305 13.0949C25.166 12.8324 24.9771 12.5321 24.8659 12.2073C24.8548 12.1761 24.8415 12.1472 24.8282 12.1183C24.8237 12.1116 24.8215 12.1027 24.817 12.096L28.0133 6.55433ZM25.7973 4.73008C26.4018 4.9659 26.9375 5.20394 27.4287 5.45756C27.3198 5.75344 27.3865 6.08047 27.6066 6.31406L24.6748 11.3953C24.6748 11.3953 24.6637 11.3775 24.657 11.3708C24.5814 11.2662 24.4592 11.2039 24.328 11.2039C24.2525 11.2039 24.1769 11.2262 24.1191 11.264C24.0257 11.3196 23.9524 11.3396 23.9146 11.3396C23.8991 11.3396 23.8679 11.3396 23.8101 11.2596C23.7524 11.1839 23.6657 11.1461 23.5456 11.1461H23.4412C23.3434 11.155 23.2522 11.1639 23.1678 11.1639H23.1189L25.066 5.17725C25.3749 5.17725 25.6572 5.00372 25.7973 4.73008ZM21.8608 4.44755C22.1675 4.3897 22.4143 4.16723 22.5054 3.86468C23.0544 3.94699 23.6234 4.06712 24.2458 4.22953C24.2013 4.54098 24.3369 4.85022 24.597 5.02819L22.6188 11.1038C22.3609 11.0549 22.1142 10.9548 21.863 10.8013C21.6986 10.7012 21.5363 10.65 21.3807 10.65C21.3229 10.65 21.2629 10.6589 21.2007 10.6722L21.8608 4.44755ZM19.0913 3.6956C19.3847 3.68225 19.6825 3.67335 19.9804 3.67335C20.2782 3.67335 20.5716 3.68003 20.8673 3.6956C20.8939 4.01151 21.0851 4.28069 21.3718 4.40083L20.6717 11.0638C20.6005 11.1639 20.545 11.2751 20.5049 11.393C20.4783 11.4731 20.4605 11.4731 20.4405 11.4731C20.4294 11.4731 20.4205 11.4731 20.416 11.4709L20.4094 11.4665H20.4005C20.2293 11.4353 20.0893 11.3953 19.9715 11.3085C19.9448 11.2907 19.9204 11.2729 19.8981 11.2573C19.8759 11.2395 19.8515 11.224 19.8248 11.2062C19.6514 11.0794 19.4714 10.9481 19.2669 10.8458L18.5867 4.39415C18.869 4.27402 19.0646 4.00261 19.0913 3.6956ZM15.7216 4.22953C16.264 4.08047 16.8486 3.95811 17.462 3.86468C17.5443 4.16279 17.7954 4.3897 18.1066 4.44755L18.7668 10.6878C18.749 10.6856 18.7334 10.6834 18.7201 10.6834C18.6045 10.6678 18.4445 10.5632 18.3333 10.4854C18.32 10.4765 18.3067 10.4698 18.2956 10.4631C18.3822 10.3675 18.4178 10.2807 18.4311 10.2229C18.4689 10.0716 18.4378 9.89582 18.3489 9.75344C18.28 9.64443 18.0866 9.33965 17.671 9.33965H17.6221C17.4331 9.34855 17.2131 9.35745 16.9508 9.35745H16.7797L15.3793 5.02597C15.6327 4.84799 15.7661 4.53876 15.7216 4.22953ZM12.5387 5.45756C13.0433 5.19504 13.5745 4.957 14.1613 4.73008C14.3035 5.00372 14.5858 5.17725 14.8926 5.17725H14.9126L16.2684 9.35745H15.7328C15.4482 9.35745 15.246 9.37969 15.1104 9.48648C15.0393 9.53987 14.9481 9.57324 14.8081 9.60216C14.6703 9.63331 14.5125 9.6778 14.3658 9.77569L12.3698 6.32074C12.5809 6.07825 12.6454 5.74899 12.5387 5.45756ZM11.1206 6.27847C11.2806 6.46757 11.514 6.5788 11.7541 6.5788C11.8252 6.5788 11.8852 6.57213 11.9474 6.55656L13.6945 9.59104C13.5523 9.61773 13.4233 9.70227 13.3211 9.84243C13.2077 9.99371 13.0788 10.1472 12.921 10.3252L12.9077 10.3408C12.7432 10.5321 12.572 10.7279 12.4231 10.9437C12.3831 11.0015 12.3475 11.0571 12.3075 11.1083L9.69138 8.19838C9.85364 7.92252 9.85142 7.58659 9.68916 7.33297C10.187 6.92141 10.656 6.57658 11.1206 6.27847ZM8.44443 8.45199C8.44443 8.45199 8.46221 8.43642 8.47333 8.4253C8.6178 8.54098 8.79784 8.60327 8.98455 8.60327C9.10236 8.60327 9.22238 8.57658 9.34019 8.52319L11.9852 11.4642C11.8919 11.5421 11.7741 11.6222 11.634 11.6511C11.0183 11.7957 10.6783 12.1984 10.4493 12.5299C10.4271 12.5655 10.4049 12.5988 10.3826 12.6322C10.3715 12.65 10.3582 12.6656 10.3471 12.6834L7.4731 10.5944C7.57534 10.2963 7.50422 9.97146 7.28861 9.74454C7.6198 9.32408 8.00877 8.89026 8.44443 8.45199ZM6.31061 11.0727C6.42175 11.1261 6.54622 11.1572 6.66847 11.1572C6.84851 11.1572 7.02633 11.0972 7.17303 10.9859L10.0759 13.0972C9.94032 13.3063 9.79807 13.5065 9.59802 13.66C9.478 13.7534 9.34686 13.9336 9.4002 14.2584C9.41798 14.3675 9.43354 14.4765 9.45132 14.5788C9.48689 14.7612 9.51578 14.917 9.51356 15.0727L5.77271 13.4108C5.81494 13.0972 5.67047 12.7879 5.40818 12.6166C5.6838 12.0827 5.98832 11.5621 6.31061 11.0727ZM4.7547 14.1094C4.82583 14.1272 4.89473 14.1383 4.95697 14.1383C5.19925 14.1383 5.42597 14.0338 5.586 13.8469L9.42465 15.5599V15.5688L9.42021 15.5955C9.39798 15.7178 9.3802 15.8202 9.32685 15.8869C9.09569 16.1739 9.14237 16.4765 9.17348 16.6767V16.6967C9.19127 16.8146 9.20238 16.9081 9.16904 16.9815C9.0868 17.1772 9.24683 17.3107 9.30462 17.3619C9.31796 17.3752 9.33352 17.3864 9.34463 17.3953C9.34908 17.3997 9.35353 17.4019 9.35797 17.4064C9.38687 17.4375 9.41798 17.4754 9.4491 17.5132L4.71692 16.5054C4.69024 16.1984 4.4902 15.9247 4.20124 15.8046C4.37462 15.1884 4.55466 14.6322 4.7547 14.1094ZM3.87006 17.4042H3.89895C4.20347 17.4042 4.48575 17.2373 4.62578 16.9748L9.96033 18.1138C10.0003 18.1695 10.0359 18.2318 10.067 18.3029C10.0692 18.3118 10.0759 18.323 10.0804 18.3363C10.087 18.3497 10.0937 18.363 10.0981 18.3786L10.1093 18.4075C10.2271 18.6589 10.3471 18.9192 10.5983 19.0994C10.8539 19.2885 11.0784 19.5154 11.3184 19.7534H4.32794C4.23903 19.4553 3.99008 19.2329 3.68112 19.175C3.71447 18.5744 3.77892 17.9804 3.87006 17.4042ZM3.87006 22.5922C3.77226 21.9781 3.71224 21.3953 3.68779 20.8146C3.99008 20.7635 4.2457 20.5321 4.33683 20.234H17.3442C17.3442 20.2473 17.3442 20.274 17.3353 20.3163L4.61689 23.0215C4.47686 22.759 4.1968 22.5922 3.89006 22.5922H3.87006ZM14.4236 19.8091C14.4236 19.8091 14.4413 19.7089 14.6258 19.6177C14.6592 19.5999 14.6836 19.5821 14.717 19.5666C14.8526 19.4909 14.9948 19.4153 15.1282 19.4153C15.1704 19.4153 15.2126 19.4242 15.2549 19.4398L15.2704 19.4487H15.2882C15.3304 19.4576 15.3793 19.4665 15.4394 19.4665C15.4816 19.4665 15.5149 19.4665 15.5572 19.4576H15.6483C15.7416 19.4576 15.7572 19.4731 15.775 19.4998C15.875 19.6244 15.9773 19.7267 16.0928 19.8091H14.4236ZM4.95697 25.8602C4.87918 25.8602 4.81249 25.8691 4.7547 25.8869C4.54132 25.3285 4.35906 24.7612 4.21013 24.1962C4.49909 24.0805 4.69913 23.8068 4.72358 23.4909L17.2909 20.8146C17.302 20.8391 17.3153 20.8613 17.3331 20.8836C17.3376 20.8903 17.342 20.8969 17.3487 20.9058H17.3509L5.586 26.1494C5.42597 25.9648 5.19925 25.8602 4.95697 25.8602ZM6.67736 28.8413C6.55511 28.8413 6.42842 28.8702 6.31728 28.9259C6.0061 28.452 5.7127 27.947 5.42374 27.3797C5.6838 27.2039 5.82383 26.9014 5.78827 26.5877L17.2553 21.4754C17.1931 21.5755 17.1531 21.6778 17.1397 21.769L7.17525 29.0104C7.03522 28.9036 6.85296 28.8413 6.67736 28.8413ZM9.3313 31.482C9.21349 31.4286 9.09569 31.4019 8.97566 31.4019C8.79117 31.4019 8.61336 31.4642 8.46666 31.5777C8.45554 31.5666 8.44221 31.5554 8.42887 31.5465C7.99544 31.1127 7.61535 30.6856 7.27305 30.254C7.48643 30.0338 7.55978 29.7023 7.45754 29.4042L17.2753 22.2629C17.3087 22.3029 17.3487 22.343 17.3931 22.3808C17.4131 22.3964 17.4309 22.4142 17.4509 22.4297C17.4554 22.4342 17.4598 22.4386 17.4665 22.4431L9.3313 31.482ZM11.9452 33.4442C11.8874 33.4309 11.823 33.4175 11.7541 33.4175C11.5029 33.4175 11.2695 33.5287 11.1206 33.7178C10.6694 33.4286 10.1982 33.0838 9.68027 32.6633C9.8403 32.3986 9.8403 32.0627 9.68471 31.8002L17.7954 22.7835C17.8621 22.868 17.9155 22.9414 17.9599 23.0171L11.9452 33.4442ZM14.9015 34.8213C14.5925 34.8213 14.3102 34.9948 14.168 35.2685C13.6167 35.0616 13.0721 34.8168 12.5476 34.5388C12.6565 34.2451 12.5898 33.9181 12.3698 33.6822L18.2267 23.5287C18.2555 23.6022 18.2822 23.6823 18.3067 23.7646C18.3289 23.838 18.3422 23.9136 18.3578 23.9937C18.3645 24.0293 18.3734 24.0649 18.38 24.1005C18.38 24.1138 18.3845 24.1227 18.3867 24.1316L14.917 34.8213H14.9015ZM18.6356 24.9147C18.7334 25.2062 18.6534 25.4642 18.3667 25.8135C18.3533 25.8291 18.34 25.8447 18.3289 25.8602L18.6356 24.9147ZM18.1066 35.551C17.7999 35.6066 17.5532 35.8291 17.462 36.1316C16.913 36.0493 16.3418 35.9292 15.7216 35.7668C15.7661 35.4576 15.6305 35.1461 15.3704 34.9703L18.011 26.8391C18.0399 27.0549 18.1289 27.2863 18.2778 27.5399C18.3267 27.6266 18.3756 27.7112 18.4378 27.8091C18.5845 28.0515 18.7334 28.3007 18.849 28.5521L18.1066 35.551ZM20.8739 36.3007C20.5805 36.3163 20.2827 36.323 19.9871 36.323C19.6914 36.323 19.398 36.3163 19.1024 36.3007C19.0824 35.9915 18.8846 35.7178 18.5956 35.5955L19.1913 29.9492C19.2913 30.2807 19.4669 30.5921 19.727 30.8969L19.7381 30.9103C19.9848 31.1928 20.1893 31.4553 20.1515 31.7868C20.116 32.0538 20.1671 32.2696 20.3071 32.4275C20.3983 32.5276 20.5694 32.6478 20.8695 32.6478C20.9028 32.6478 20.9384 32.6478 20.9695 32.6389C20.9939 32.6389 21.0206 32.6389 21.0451 32.6344C21.054 32.6344 21.0629 32.6344 21.0717 32.6322L21.3807 35.5955C21.0917 35.7245 20.8939 36.0004 20.8739 36.3007ZM21.4674 32.125H21.4496L21.4363 32.1383L21.3918 32.1761L21.0917 32.1917C21.0629 32.1917 21.0362 32.1917 21.0073 32.1962C20.9806 32.1984 20.9562 32.2006 20.9273 32.2006H20.8606C20.7561 32.2006 20.6739 32.1739 20.6339 32.1272C20.585 32.0693 20.565 31.9715 20.5805 31.8424C20.6405 31.3085 20.3227 30.9281 20.0693 30.6211H20.0671L20.0604 30.6122L20.0515 30.6033C19.7626 30.2651 19.5959 29.9181 19.547 29.5443V29.5354L19.5492 29.5265L19.5447 29.5176L19.0513 27.9692C19.0491 27.9537 19.0424 27.9403 19.0357 27.9336C18.9735 27.8157 18.9001 27.6934 18.8179 27.5643C18.7934 27.5243 18.7668 27.4798 18.7423 27.4353C18.7179 27.3908 18.6934 27.3485 18.6668 27.3063C18.3711 26.7924 18.3845 26.4965 18.7223 26.0849C19.0357 25.7 19.3136 25.2217 18.989 24.5721L18.8201 24.2451L18.8401 24.185L18.8446 24.1717V24.1583L18.8246 24.0738V24.0671L18.8268 24.0582V24.0493L18.8157 24.0249C18.809 23.9959 18.8046 23.9603 18.7979 23.9247C18.7801 23.8291 18.7623 23.7312 18.7312 23.6311C18.6912 23.5065 18.6467 23.3797 18.589 23.2529C18.5867 23.2395 18.5778 23.2284 18.569 23.2195L18.2867 22.7034C18.2822 22.69 18.2733 22.6789 18.2622 22.6722C18.2044 22.5899 18.1444 22.5143 18.0933 22.4453L18.0733 22.4186L18.0888 22.4031L18.0444 22.363L17.9599 22.2874L17.9533 22.2807L17.8488 22.1517L17.811 22.1027L17.7888 22.125C17.751 22.0871 17.7132 22.0582 17.6754 22.0293C17.6532 22.0115 17.6354 21.9915 17.6198 21.9737C17.611 21.9648 17.6021 21.9537 17.5932 21.9448L17.5621 21.9025L17.5665 21.8491C17.5732 21.8157 17.5865 21.7601 17.6243 21.7067C17.6599 21.6556 17.6843 21.6133 17.7088 21.571C17.7265 21.5532 17.7265 21.5198 17.7265 21.5065L17.8021 20.8413V20.8213L17.7954 20.8057L17.7688 20.7635C17.7421 20.7101 17.7154 20.6656 17.6821 20.6255L17.7243 20.4987C17.7243 20.4987 17.731 20.4809 17.7332 20.4698C17.7354 20.4653 17.7354 20.4587 17.7377 20.4564V20.4498L17.7421 20.4453C17.7621 20.3652 17.8132 20.165 17.691 19.9959C17.6465 19.9247 17.5643 19.8647 17.4554 19.8246L17.4042 19.8068H17.3954L16.7485 19.8046C16.7441 19.8046 16.7285 19.8002 16.7152 19.7935L16.3018 19.5043C16.2195 19.4442 16.1484 19.3752 16.0684 19.2796C15.9239 19.0816 15.7039 19.0816 15.6327 19.0816H15.4305C15.4082 19.0816 15.3905 19.0816 15.3727 19.0771C15.2838 19.0482 15.1949 19.0326 15.1126 19.0326C14.8792 19.0326 14.677 19.1372 14.5147 19.224C14.4902 19.2395 14.4614 19.2551 14.4391 19.2618C14.3169 19.3263 14.1524 19.5354 14.0079 19.7267L13.9768 19.7668C13.9768 19.7668 13.9523 19.7868 13.9368 19.7868H11.9897C11.9897 19.7868 11.9675 19.7846 11.9608 19.7779L11.7007 19.5265L11.6941 19.5176L11.6096 19.4353L11.5407 19.3663C11.314 19.1394 11.1006 18.9259 10.8383 18.7323C10.6849 18.6166 10.5894 18.4186 10.4871 18.1917C10.476 18.1739 10.4716 18.1628 10.4671 18.1494C10.4604 18.1316 10.4516 18.1138 10.4404 18.0983C10.4338 18.0871 10.4271 18.076 10.4182 18.0649L9.87809 17.3419L9.86253 17.3263L9.84475 17.3063C9.79807 17.2507 9.7425 17.1884 9.69583 17.1283V17.1239L9.67804 17.0905C9.65804 17.0705 9.63359 17.0504 9.60247 17.026C9.63137 16.888 9.61358 16.7568 9.59802 16.6366L9.59358 16.6033C9.56913 16.3986 9.55579 16.2762 9.65582 16.1606C9.78029 16.0004 9.81808 15.8135 9.84919 15.6489L9.85364 15.6311L9.9381 15.1839C9.96478 14.9214 9.92032 14.6856 9.87809 14.4742C9.87364 14.4409 9.86698 14.4053 9.85808 14.3697C9.84697 14.3074 9.83363 14.2495 9.82919 14.1873C9.81141 14.0515 9.83363 14.0115 9.86031 13.9915C10.1359 13.7779 10.3293 13.4932 10.4671 13.2707L10.636 13.0037L10.6672 12.9548C10.6894 12.9192 10.7116 12.8836 10.7361 12.848C10.7561 12.8191 10.7761 12.7901 10.7939 12.759C10.9672 12.4965 11.2295 12.1784 11.7096 12.0627C11.9208 12.0093 12.1164 11.9047 12.292 11.749L12.3142 11.7735L12.352 11.7223L12.4453 11.6066L12.4565 11.591V11.5866L12.5476 11.5021L12.5898 11.4642L12.5676 11.4398L12.5965 11.4042C12.6143 11.3775 12.632 11.353 12.6521 11.3263C12.6854 11.2796 12.721 11.2306 12.7632 11.1772C12.9121 10.9659 13.0877 10.7679 13.2389 10.601C13.3833 10.4409 13.5323 10.274 13.6634 10.0827C13.6901 10.0493 13.7301 10.0048 13.7679 10.0048H13.9724L13.9812 10.0204L14.1146 10.254C14.1479 10.3052 14.1968 10.3319 14.2502 10.3319C14.288 10.3319 14.3213 10.3185 14.3502 10.2963L14.5592 10.1272C14.6303 10.0693 14.7303 10.0427 14.8348 10.016L14.8837 10.0048C15.037 9.96924 15.2037 9.92474 15.3549 9.80906C15.3616 9.80461 15.4127 9.77124 15.7083 9.77124H16.9241C17.1886 9.77124 17.402 9.76234 17.6154 9.75344H17.6376C17.7888 9.75344 17.8688 9.8491 17.9355 9.94921C17.9644 9.99593 17.971 10.0449 17.9644 10.0649C17.9577 10.0916 17.9488 10.1072 17.9177 10.1383L17.6776 10.3452C17.6421 10.3741 17.6221 10.4208 17.6243 10.472C17.6265 10.521 17.651 10.5677 17.691 10.5922L17.9621 10.7612C17.9799 10.7724 17.991 10.7812 18.0044 10.7901C18.0222 10.8013 18.0377 10.8124 18.0577 10.8235C18.2289 10.9348 18.4245 11.0616 18.6379 11.0883C18.6579 11.0883 18.6734 11.0927 18.6956 11.0994L18.7157 11.1038L18.8624 11.1305H18.8668L18.8735 11.135L19.0157 11.2017C19.1958 11.284 19.3647 11.4086 19.5269 11.531C19.5536 11.5488 19.5758 11.5666 19.5981 11.5821C19.6225 11.5999 19.647 11.6177 19.6714 11.6333C19.8381 11.7468 20.0315 11.8202 20.2805 11.8602C20.3271 11.8713 20.3716 11.8714 20.4071 11.8714C20.5405 11.8714 20.7783 11.8224 20.8961 11.4976C20.9295 11.4064 20.9695 11.3285 21.014 11.2685L21.0673 11.1906L21.074 11.1795V11.1683L21.0784 11.1417L21.2318 11.086C21.2696 11.0705 21.3051 11.0638 21.3385 11.0638C21.4052 11.0638 21.4852 11.0883 21.5919 11.1417C21.8853 11.3285 22.1964 11.4487 22.5387 11.5087L22.7477 11.5421H22.8588L22.99 11.551H23.1344C23.2433 11.551 23.3567 11.551 23.479 11.5332C23.599 11.6645 23.7346 11.7267 23.8902 11.7267C24.0035 11.7267 24.1169 11.6934 24.2769 11.6133L24.3569 11.8736C24.3614 11.8869 24.3614 11.9025 24.3569 11.9092L24.3303 11.9537C24.3014 11.9959 24.3014 12.0627 24.3303 12.1049L24.3881 12.2095C24.3969 12.2251 24.4014 12.2384 24.4081 12.2562C24.4147 12.2696 24.4214 12.2851 24.4281 12.3007C24.557 12.6656 24.757 12.9881 24.9348 13.2707C24.9704 13.333 25.0104 13.3975 25.0504 13.4598C25.0882 13.5243 25.126 13.5866 25.1616 13.6467L25.166 13.6622L25.1749 13.68L25.2527 13.8157L25.3594 14.0249L25.3749 14.0471L25.3816 14.0671C25.5928 14.4809 25.8062 14.9014 26.1573 15.2796L26.3085 15.4464L26.3196 15.4576L26.3641 15.5176C26.4063 15.5755 26.4441 15.64 26.4819 15.7045C26.5041 15.7401 26.5241 15.7757 26.5463 15.8091L26.5597 15.8313C26.6819 16.0471 26.8108 16.2673 27.0198 16.4342C27.0464 16.4587 27.0753 16.4831 27.102 16.5076C27.1287 16.5343 27.1576 16.5588 27.1865 16.5855L27.1909 16.5899L27.6221 16.9548C27.8199 17.0972 27.8688 17.1928 27.8399 17.373L27.7888 17.6845C27.7822 17.7312 27.7977 17.7779 27.8266 17.8113C27.8577 17.8469 27.9022 17.8669 27.9489 17.8669H27.9689L28.2867 17.8246C28.3356 17.8157 28.3823 17.8157 28.4223 17.8157C28.5734 17.8157 28.6335 17.8669 28.6646 17.9047L28.8091 18.0671C28.8335 18.0983 28.8757 18.1183 28.918 18.1183C28.9535 18.1183 28.9891 18.1049 29.0202 18.0805L29.1869 17.9559C29.347 17.8335 29.5137 17.8157 29.6559 17.8157C29.747 17.8157 29.8471 17.8246 29.9449 17.8335C30.0427 17.8402 30.156 17.8491 30.2605 17.8491H30.345C30.345 17.8491 30.3561 17.8491 30.3605 17.8513C30.3605 17.8625 30.3538 17.878 30.345 17.8958C30.1516 18.4431 29.8893 19.0037 29.567 19.5643L29.4492 19.7646L29.3492 19.9225L29.3425 19.9359L29.3358 19.9425L29.3314 19.9492C29.2136 20.1383 29.0291 20.294 28.7979 20.4809L28.7246 20.541L28.6557 20.5988C28.4179 20.8013 28.1911 21.0215 27.98 21.2507L27.5843 21.6867L27.5265 21.7512L27.5577 21.7601C27.4176 21.9425 27.2843 22.1383 27.1576 22.343C27.1265 22.3942 27.0753 22.472 27.0175 22.5477C26.9798 22.5988 26.9464 22.6455 26.9175 22.6878C26.9042 22.7101 26.8886 22.7301 26.8753 22.7501L26.8464 22.7946H26.8286C26.7397 22.7946 26.6708 22.8658 26.6708 22.9592L26.6797 23.0816V23.135L26.6886 23.3485C26.6886 23.373 26.6886 23.4042 26.6997 23.4375C26.7575 23.8691 26.8308 24.2963 27.0931 24.6789C27.1642 24.7835 27.1798 24.8903 27.1598 24.9503C27.1576 24.9548 27.1553 24.9681 27.1509 24.977C27.1509 24.9837 27.1509 24.9881 27.1465 24.9926V24.997L27.1442 25.0037L27.0687 25.3152V25.3196L27.0664 25.3263L27.0753 25.6489C27.0753 25.6823 27.0753 25.729 27.0842 25.769C27.0909 25.9047 27.0998 26.0338 27.0842 26.1606C27.0598 26.3964 26.8308 26.6433 26.5685 26.7167H26.5552L26.3529 26.7679L26.324 26.7768L26.064 26.917C25.7617 27.0794 25.4905 27.3174 25.2571 27.62C25.2282 27.6578 25.1971 27.6978 25.1882 27.7512L25.1393 27.8691C25.1216 27.9381 25.1327 27.9937 25.1682 28.0293L25.2571 28.1339C25.2838 28.165 25.286 28.1873 25.2794 28.2874V28.4342C25.3038 28.6945 25.2794 28.8814 25.2016 29.0104L25.1549 29.0905C25.1549 29.0905 25.1438 29.1038 25.1416 29.1105L25.0593 29.1706C24.9771 29.2284 24.8726 29.2729 24.757 29.3041C24.4014 29.3975 24.2102 29.8157 24.2814 30.1116C24.3658 30.4987 24.1836 30.69 23.8524 30.997L23.8324 31.0148C23.7812 31.0571 23.7368 31.0972 23.6923 31.1417L23.6746 31.1594L23.659 31.175L23.5345 31.2907L23.5234 31.3018L23.3878 31.3953C22.9744 31.6956 22.4965 31.8669 22.0431 32.0182C21.843 32.0871 21.6585 32.1072 21.4963 32.1227H21.4674V32.125ZM24.2458 35.769C23.7035 35.9158 23.1189 36.0382 22.5054 36.1316C22.4232 35.8335 22.172 35.6066 21.8608 35.551L21.5519 32.6099C21.7408 32.5921 21.9564 32.5655 22.1809 32.4854C22.6677 32.3185 23.1433 32.145 23.5834 31.8402L24.597 34.9637C24.3392 35.1461 24.2013 35.4598 24.2458 35.769ZM27.4287 34.5388C26.9153 34.8057 26.3818 35.0438 25.7995 35.2685C25.6572 34.9948 25.3749 34.8213 25.066 34.8213H25.0482L23.9791 31.5265H23.9813L23.9902 31.5221L23.9969 31.5154C24.0391 31.4754 24.0858 31.4264 24.1413 31.3886C24.4458 31.115 24.8593 30.7479 24.717 30.0716C24.697 29.9781 24.777 29.818 24.8771 29.7935C25.0171 29.7579 25.1504 29.7045 25.2727 29.6311L27.6132 33.6934C27.391 33.9158 27.3198 34.2451 27.4287 34.541V34.5388ZM28.8468 33.7201C28.6868 33.5287 28.4534 33.4175 28.2134 33.4175C28.1422 33.4175 28.0822 33.4264 28.02 33.442L25.6083 29.2662C25.7261 29.0527 25.7661 28.7835 25.7328 28.4453V28.3586C25.7417 28.2495 25.7395 28.0827 25.6306 27.9292C25.8239 27.6756 26.044 27.482 26.2863 27.353L30.2827 31.8002C30.1227 32.0671 30.1249 32.4097 30.2872 32.6656C29.7693 33.0838 29.2958 33.4309 28.8468 33.7201ZM31.523 31.5443C31.523 31.5443 31.5052 31.5621 31.4941 31.571C31.3496 31.4576 31.1696 31.393 30.9829 31.393C30.8629 31.393 30.7451 31.422 30.6272 31.4731L26.753 27.1706C27.1687 27.0237 27.4954 26.6389 27.5288 26.2473C27.5465 26.0849 27.5377 25.9314 27.5288 25.7801L32.501 29.3953C32.3988 29.6934 32.4699 30.0182 32.6877 30.2451C32.3454 30.6789 31.9631 31.1038 31.523 31.5443ZM33.6502 28.9259C33.539 28.8702 33.4123 28.8413 33.2901 28.8413C33.1145 28.8413 32.9322 28.9036 32.7855 29.0126L27.5621 25.2106C27.5666 25.1861 27.5732 25.1639 27.5843 25.1372C27.6577 24.9348 27.6155 24.6834 27.471 24.4653C27.282 24.1873 27.2198 23.8713 27.1598 23.4642L34.1858 26.5944C34.1458 26.9081 34.2881 27.2173 34.5526 27.3886C34.277 27.927 33.9747 28.4431 33.6502 28.9259ZM35.2127 25.8891C35.1416 25.8691 35.0727 25.8602 35.0105 25.8602C34.7682 25.8602 34.5415 25.9648 34.3814 26.1494L27.2976 22.9948C27.3198 22.9615 27.3421 22.9281 27.3687 22.8903C27.4199 22.8213 27.471 22.7546 27.5199 22.6789C27.6888 22.4164 27.86 22.1761 28.0244 21.9626L35.2439 23.4998C35.2683 23.8068 35.4683 24.0805 35.7573 24.2028C35.5995 24.7857 35.4172 25.353 35.2127 25.8891ZM36.0974 22.5922H36.0685C35.764 22.5922 35.4817 22.759 35.3417 23.0215L28.3867 21.5399C28.5935 21.3196 28.7779 21.1461 28.9602 20.9948C28.9847 20.9726 29.0069 20.9548 29.0291 20.937C29.0536 20.917 29.078 20.8969 29.1002 20.8747C29.3203 20.6945 29.5514 20.5054 29.7159 20.2473C29.7204 20.2451 29.7248 20.2407 29.727 20.234H35.6395C35.7284 20.5343 35.9774 20.7568 36.2863 20.8146C36.253 21.4153 36.1907 21.9982 36.0974 22.5922ZM35.6395 19.7534H30.0116C30.3072 19.2284 30.565 18.6722 30.7739 18.0983C30.7962 18.0382 30.8117 17.9826 30.8162 17.9314L35.3505 16.9681C35.4906 17.2284 35.7706 17.3953 36.0774 17.3953H36.104C36.2018 18.0115 36.2619 18.5944 36.2885 19.175C35.9774 19.2329 35.7284 19.4553 35.6395 19.7534Z" fill="black"/>
<path d="M46.7833 17.0341L46.3343 15.3144H44.3805L43.9404 17.0341H42.3867L44.3183 9.89062H46.4854L48.417 17.0341H46.7811H46.7833ZM45.403 11.3745H45.3207L44.625 14.0753H46.0965L45.4007 11.3745H45.403Z" fill="black"/>
<path d="M51.7002 17.1561C50.7466 17.1561 50.0398 16.8335 49.5797 16.1883C49.1196 15.5432 48.8906 14.6355 48.8906 13.4608C48.8906 12.2862 49.1196 11.3785 49.5797 10.7334C50.0398 10.0882 50.7466 9.76562 51.7002 9.76562C52.0691 9.76562 52.3936 9.81457 52.6759 9.91468C52.9582 10.0148 53.2027 10.1527 53.4072 10.3285C53.6117 10.5064 53.7806 10.72 53.914 10.9736C54.0474 11.225 54.1518 11.5098 54.2252 11.8235L52.7937 12.1705C52.7537 11.9992 52.7048 11.8435 52.6515 11.6989C52.5981 11.5543 52.527 11.4319 52.4425 11.3296C52.3581 11.2272 52.2514 11.1472 52.1247 11.0893C51.998 11.0315 51.8469 11.0026 51.669 11.0026C51.2534 11.0026 50.9578 11.165 50.7844 11.4898C50.611 11.8146 50.5243 12.2617 50.5243 12.8357V14.0838C50.5243 14.6577 50.611 15.1049 50.7844 15.4297C50.9578 15.7545 51.2534 15.9169 51.669 15.9169C52.0224 15.9169 52.2803 15.8079 52.4403 15.5899C52.6004 15.3719 52.7182 15.0915 52.7937 14.7512L54.2252 15.0982C54.1496 15.4119 54.0451 15.6944 53.914 15.9481C53.7806 16.1994 53.6117 16.4175 53.4072 16.5977C53.2027 16.7779 52.9582 16.9158 52.6759 17.0115C52.3936 17.1071 52.0669 17.1538 51.7002 17.1538V17.1561Z" fill="black"/>
<path d="M59.0528 17.0341L58.6038 15.3144H56.65L56.2099 17.0341H54.6562L56.5878 9.89062H58.755L60.6865 17.0341H59.0506H59.0528ZM57.6725 11.3745H57.5902L56.8945 14.0753H58.366L57.6703 11.3745H57.6725Z" fill="black"/>
<path d="M61.3906 9.88894H63.6911C64.6514 9.88894 65.3649 10.196 65.8294 10.81C66.2917 11.424 66.5251 12.3072 66.5251 13.4596C66.5251 14.612 66.294 15.4952 65.8294 16.1092C65.3649 16.7232 64.6536 17.0302 63.6911 17.0302H61.3906V9.88672V9.88894ZM63.5889 15.8244C64.0446 15.8244 64.3802 15.6776 64.5914 15.3839C64.8025 15.0903 64.9092 14.6631 64.9092 14.1047V12.8055C64.9092 12.2538 64.8025 11.8289 64.5914 11.5374C64.3802 11.2438 64.0468 11.097 63.5889 11.097H62.9043V15.8244H63.5889Z" fill="black"/>
<path d="M67.6914 17.0341V9.89062H72.2524V11.1498H69.2251V12.7872H72.1502V14.0464H69.2251V15.7749H72.2524V17.0341H67.6914Z" fill="black"/>
<path d="M77.4663 13.8506L77.5485 11.855H77.4574L76.1282 15.528L74.799 11.855H74.7079L74.7901 13.8506V17.0341H73.4609V9.89062H75.2702L76.1504 12.2955H76.2327L77.1129 9.89062H78.7999V17.0341H77.4707V13.8506H77.4663Z" fill="black"/>
<path d="M81.7449 17.0341V14.5069L79.4844 9.89062H81.1914L81.9472 11.548L82.4984 12.9496H82.5806L83.1319 11.548L83.8876 9.89062H85.5346L83.2741 14.5069V17.0341H81.7404H81.7449Z" fill="black"/>
<path d="M46.8562 31.3877L46.3094 29.2943H43.9311L43.3954 31.3877H41.5039L43.8556 22.6914H46.4939L48.8456 31.3877H46.854H46.8562ZM45.1759 24.4979H45.0758L44.229 27.786H46.0205L45.1736 24.4979H45.1759Z" fill="black"/>
<path d="M49.9062 31.3877V22.6914H55.6698V24.2242H51.7733V26.2175H55.2586V27.7504H51.7733V31.3877H49.9062Z" fill="black"/>
<path d="M59.0419 31.3877H57.1992V22.6914H60.56C60.9823 22.6914 61.3602 22.7559 61.6936 22.885C62.0248 23.014 62.3048 23.1986 62.5338 23.4389C62.7627 23.6792 62.9339 23.9706 63.0494 24.311C63.165 24.6514 63.2228 25.034 63.2228 25.4567C63.2228 26.0707 63.0894 26.598 62.8249 27.0385C62.5582 27.4789 62.1826 27.7704 61.6913 27.9105L63.3962 31.3855H61.3557L59.8998 28.1597H59.0396V31.3855L59.0419 31.3877ZM60.1132 26.7159C60.5533 26.7159 60.8578 26.6336 61.029 26.4667C61.1979 26.2999 61.2846 26.0262 61.2846 25.6436V25.2698C61.2846 24.8872 61.2001 24.6135 61.029 24.4467C60.8578 24.2798 60.5533 24.1975 60.1132 24.1975H59.0419V26.7137H60.1132V26.7159Z" fill="black"/>
<path d="M64.6562 31.39V30.0062H66.5233V24.0752H64.6562V22.6914H70.2575V24.0752H68.3904V30.0062H70.2575V31.39H64.6562Z" fill="black"/>
<path d="M75.1261 31.5391C73.9636 31.5391 73.1034 31.1475 72.5433 30.3622C71.9832 29.5769 71.7031 28.4712 71.7031 27.043C71.7031 25.6147 71.9832 24.5068 72.5433 23.7237C73.1034 22.9384 73.9636 22.5469 75.1261 22.5469C75.5751 22.5469 75.9708 22.6069 76.3153 22.7271C76.6598 22.8472 76.9554 23.0163 77.2044 23.2321C77.4533 23.4479 77.6578 23.7104 77.8201 24.0174C77.9823 24.3244 78.109 24.6692 78.2002 25.0519L76.4575 25.4746C76.4086 25.2677 76.3486 25.0764 76.2842 24.9006C76.2175 24.7271 76.133 24.5758 76.0286 24.4512C75.9241 24.3266 75.7952 24.2287 75.6418 24.1576C75.4884 24.0864 75.3039 24.0508 75.0883 24.0508C74.5816 24.0508 74.2237 24.2488 74.0125 24.6425C73.8014 25.0363 73.6947 25.5836 73.6947 26.2799V27.7994C73.6947 28.4979 73.8014 29.043 74.0125 29.4368C74.2237 29.8305 74.5838 30.0285 75.0883 30.0285C75.5196 30.0285 75.833 29.895 76.0286 29.6303C76.2242 29.3656 76.3664 29.0252 76.4575 28.6092L78.2002 29.0319C78.109 29.4145 77.9823 29.7593 77.8201 30.0663C77.6578 30.3733 77.4533 30.6381 77.2044 30.8583C76.9554 31.0786 76.6576 31.2477 76.3153 31.3633C75.9708 31.479 75.5751 31.5369 75.1261 31.5369V31.5391Z" fill="black"/>
<path d="M84.075 31.3877L83.5282 29.2943H81.1499L80.6142 31.3877H78.7227L81.0743 22.6914H83.7127L86.0643 31.3877H84.0728H84.075ZM82.3946 24.4979H82.2946L81.4477 27.786H83.2392L82.3924 24.4979H82.3946Z" fill="black"/>
</g>
<defs>
<clipPath id="clip0_2866_3411">
<rect width="88" height="40" fill="white"/>
</clipPath>
</defs>
</svg>
